<svg width="27" height="27" viewBox="0 0 27 27" fill="none" xmlns="http://www.w3.org/2000/svg">
<path d="M19.7315 7.8921C19.4372 7.8921 19.1564 8.019 18.9593 8.2377L11.4829 16.5618L8.00265 13.095C7.80555 12.9006 7.54635 12.7926 7.27095 12.7926C6.99285 12.7926 6.73095 12.9006 6.53385 13.0977C6.12885 13.5027 6.13155 14.1615 6.53655 14.5665L10.7918 18.8028C10.9889 18.9972 11.248 19.1052 11.5234 19.1052C11.5369 19.1052 11.5504 19.1052 11.5532 19.1052C11.8366 19.0971 12.1067 18.9729 12.2957 18.7623L20.501 9.6228C20.8817 9.1962 20.8466 8.5401 20.4227 8.1567C20.2337 7.9866 19.988 7.8921 19.7315 7.8921Z" fill="#D8B47D"/>
<path d="M13.5 0C6.0561 0 0 6.0561 0 13.5C0 20.9439 6.0561 27 13.5 27C20.9439 27 27 20.9439 27 13.5C27 6.0561 20.9439 0 13.5 0ZM13.5 24.9237C7.2009 24.9237 2.0763 19.7991 2.0763 13.5C2.0763 7.2009 7.2009 2.0763 13.5 2.0763C19.7991 2.0763 24.9237 7.2009 24.9237 13.5C24.9237 19.7991 19.7991 24.9237 13.5 24.9237Z" fill="#D8B47D"/>
</svg>
