<svg width="26" height="20" viewBox="0 0 26 20" fill="none" xmlns="http://www.w3.org/2000/svg">
<path d="M24.1456 0C23.6192 0 23.117 0.226288 22.7645 0.616274L9.39265 15.4598L3.16791 9.2778C2.81538 8.93115 2.35179 8.73857 1.85922 8.73857C1.36182 8.73857 0.893394 8.93115 0.540868 9.28262C-0.183501 10.0048 -0.178672 11.1796 0.545697 11.9018L8.15639 19.4559C8.50892 19.8026 8.97252 19.9952 9.46509 19.9952C9.48923 19.9952 9.51338 19.9952 9.51821 19.9952C10.0253 19.9807 10.5082 19.7593 10.8462 19.3837L25.5267 3.091C26.2077 2.33028 26.1449 1.16033 25.3867 0.476649C25.0438 0.168512 24.6044 0 24.1456 0Z" fill="#D8B47D"/>
</svg>
