<svg width="27" height="27" viewBox="0 0 27 27" fill="none" xmlns="http://www.w3.org/2000/svg">
<path d="M14.9691 13.5L19.2189 9.2502C19.6239 8.8452 19.6239 8.1864 19.2189 7.7814C19.0218 7.5843 18.7626 7.4763 18.4845 7.4763C18.2064 7.4763 17.9472 7.5843 17.7501 7.7814L13.5003 12.0312L9.25046 7.7814C9.05336 7.5843 8.79416 7.4763 8.51606 7.4763C8.23796 7.4763 7.97876 7.5843 7.78166 7.7814C7.37666 8.1864 7.37666 8.8452 7.78166 9.2502L12.0315 13.5L7.78166 17.7498C7.58456 17.9469 7.47656 18.2061 7.47656 18.4842C7.47656 18.7623 7.58456 19.0215 7.78166 19.2186C7.97876 19.4157 8.23796 19.5237 8.51606 19.5237C8.79416 19.5237 9.05336 19.4157 9.25046 19.2186L13.5003 14.9688L17.7501 19.2186C17.9472 19.4157 18.2064 19.5237 18.4845 19.5237C18.7626 19.5237 19.0245 19.4157 19.2189 19.2186C19.416 19.0215 19.524 18.7623 19.524 18.4842C19.524 18.2061 19.416 17.9469 19.2189 17.7498L14.9691 13.5Z" fill="#D8B47D"/>
<path d="M13.5 0C6.0561 0 0 6.0561 0 13.5C0 20.9439 6.0561 27 13.5 27C20.9439 27 27 20.9439 27 13.5C27 6.0561 20.9439 0 13.5 0ZM13.5 24.9237C7.2009 24.9237 2.0763 19.7991 2.0763 13.5C2.0763 7.2009 7.2009 2.0763 13.5 2.0763C19.7991 2.0763 24.9237 7.2009 24.9237 13.5C24.9237 19.7991 19.7991 24.9237 13.5 24.9237Z" fill="#D8B47D"/>
</svg>
