<svg width="27" height="27" viewBox="0 0 27 27" fill="none" xmlns="http://www.w3.org/2000/svg">
<path d="M14.9688 13.5L19.2186 9.25022C19.6236 8.84522 19.6236 8.18642 19.2186 7.78142C19.0215 7.58432 18.7623 7.47632 18.4842 7.47632C18.2061 7.47632 17.9469 7.58432 17.7498 7.78142L13.5 12.0312L9.25022 7.78142C9.05312 7.58432 8.79392 7.47632 8.51582 7.47632C8.23772 7.47632 7.97852 7.58432 7.78142 7.78142C7.37642 8.18642 7.37642 8.84522 7.78142 9.25022L12.0312 13.5L7.78142 17.7498C7.58432 17.9469 7.47632 18.2061 7.47632 18.4842C7.47632 18.7623 7.58432 19.0215 7.78142 19.2186C7.97852 19.4157 8.23772 19.5237 8.51582 19.5237C8.79392 19.5237 9.05312 19.4157 9.25022 19.2186L13.5 14.9688L17.7498 19.2186C17.9469 19.4157 18.2061 19.5237 18.4842 19.5237C18.7623 19.5237 19.0242 19.4157 19.2186 19.2186C19.4157 19.0215 19.5237 18.7623 19.5237 18.4842C19.5237 18.2061 19.4157 17.9469 19.2186 17.7498L14.9688 13.5Z" fill="#E37474"/>
<path d="M13.5 0C6.0561 0 0 6.0561 0 13.5C0 20.9439 6.0561 27 13.5 27C20.9439 27 27 20.9439 27 13.5C27 6.0561 20.9439 0 13.5 0ZM13.5 24.9237C7.2009 24.9237 2.0763 19.7991 2.0763 13.5C2.0763 7.2009 7.2009 2.0763 13.5 2.0763C19.7991 2.0763 24.9237 7.2009 24.9237 13.5C24.9237 19.7991 19.7991 24.9237 13.5 24.9237Z" fill="#E37474"/>
</svg>
