<svg width="32" height="36" viewBox="0 0 32 36" fill="none" xmlns="http://www.w3.org/2000/svg">
<path fill-rule="evenodd" clip-rule="evenodd" d="M32 17.3516C32 17.114 31.9178 16.9121 31.7416 16.7459L24.4581 9.39431C24.2937 9.22804 24.0822 9.13303 23.859 9.13303C23.6241 9.13303 23.4244 9.21616 23.2599 9.39431C23.0954 9.56058 23.0015 9.76248 23.0015 10V13.8955H17.0103C16.7753 13.8955 16.5756 13.9786 16.4112 14.1568C16.2467 14.3231 16.1527 14.525 16.1527 14.7625V19.9525C16.1527 20.19 16.2349 20.3919 16.4112 20.5582C16.5756 20.7245 16.7871 20.8195 17.0103 20.8195H23.0015V24.7031C23.0015 24.9406 23.0837 25.1425 23.2599 25.3088C23.4244 25.4751 23.6358 25.5701 23.859 25.5701C24.094 25.5701 24.2937 25.4869 24.4581 25.3088L31.7416 17.9573C31.9178 17.791 32 17.5891 32 17.3516Z" fill="#D8B47D"/>
<path fill-rule="evenodd" clip-rule="evenodd" d="M12.2408 4.12114H18.5844C18.7606 4.12114 18.9016 4.16865 19.0073 4.25178C19.1131 4.34679 19.1836 4.47743 19.207 4.65558C19.2423 4.83373 19.2658 5 19.2658 5.14252C19.2775 5.28504 19.2658 5.47506 19.254 5.68884C19.2423 5.91449 19.2305 6.04513 19.2305 6.10451C19.2305 6.2114 19.2188 6.30641 19.1953 6.38955C19.1718 6.46081 19.1248 6.53207 19.0543 6.57957C18.9838 6.62708 18.9369 6.66271 18.8899 6.69834C18.8546 6.72209 18.7724 6.74584 18.6549 6.75772C18.5374 6.7696 18.4552 6.78147 18.42 6.78147H18.1498H17.9266H12.2408V27.9572H18.5844C18.7606 27.9572 18.9016 28.0048 19.0073 28.0879C19.1131 28.1829 19.1836 28.3135 19.207 28.4917C19.2423 28.6698 19.2658 28.8361 19.2658 28.9786C19.2775 29.1211 19.2658 29.3112 19.254 29.5249C19.2423 29.7506 19.2305 29.8812 19.2305 29.9406C19.2305 30.1188 19.1601 30.2732 19.0308 30.4038C18.9016 30.5344 18.7489 30.6057 18.5727 30.6057H12.2291V35.0119L0 31.5914V3.39667L12.2408 0V4.12114ZM9.17474 16.3302C9.73862 16.3302 10.1968 16.8527 10.1968 17.4941C10.1968 18.1354 9.73862 18.658 9.17474 18.658C8.61087 18.658 8.15272 18.1354 8.15272 17.4941C8.16446 16.8527 8.62261 16.3302 9.17474 16.3302Z" fill="#D8B47D"/>
</svg>
