<svg width="152" height="152" viewBox="0 0 152 152" fill="none" xmlns="http://www.w3.org/2000/svg">
<path d="M152 0H0V152H152V0Z" fill="#231F20"/>
<path d="M81.9477 105.078C81.2868 105.078 80.7912 105.078 80.1303 105.078V105.409C80.4607 105.574 80.9564 105.739 81.1216 106.07C81.2868 106.4 81.2868 106.896 81.2868 107.391V112.017C81.2868 112.513 81.2868 113.009 81.2868 113.504C81.2868 114 81.2868 114.496 80.9564 114.661C80.6259 114.991 80.2955 114.991 79.9651 115.157C79.9651 115.322 79.9651 115.487 79.9651 115.487C81.452 115.487 82.939 115.487 84.4259 115.487C85.4173 115.487 86.4086 115.487 87.5651 115.487C87.8955 114.496 88.0607 113.504 88.226 112.513C88.0607 112.513 88.0607 112.348 87.8955 112.348C87.5651 112.843 87.3999 113.339 87.0694 113.67C86.739 114.165 86.2433 114.33 85.7477 114.496C85.0868 114.661 84.2607 114.661 83.9303 114.33C83.4346 114 83.5999 113.339 83.5999 112.513V108.052C83.5999 107.226 83.5999 106.565 83.7651 106.07C83.9303 105.574 84.5912 105.409 85.252 105.243C85.252 105.078 85.252 104.913 85.252 104.913C84.5912 104.913 83.9303 104.913 83.4346 104.913C82.6086 105.078 82.2781 105.078 81.9477 105.078ZM71.539 113.67C71.2086 113.009 70.8781 112.348 70.7129 111.522C70.5477 111.026 70.5477 110.365 70.5477 109.704C70.5477 108.217 70.8781 106.896 71.8694 106.07C72.1999 105.739 72.6955 105.574 73.3564 105.574C73.852 105.574 74.5129 105.739 74.8433 106.07C75.0086 106.235 75.1738 106.4 75.339 106.565C76.1651 107.391 76.4955 108.713 76.6607 110.2C76.6607 110.53 76.6607 110.861 76.6607 111.191C76.6607 112.678 76.1651 114 75.339 114.826C75.0086 115.157 74.5129 115.322 73.852 115.322C73.852 115.322 73.852 115.322 73.6868 115.322C72.6955 115.157 72.0346 114.496 71.539 113.67ZM73.5216 104.913C73.0259 104.913 72.6955 104.913 72.3651 105.078C70.8781 105.409 69.8868 106.235 69.226 107.391C69.0607 107.722 68.8955 108.052 68.7303 108.383C68.5651 108.713 68.5651 109.043 68.3999 109.539C68.3999 109.704 68.3999 109.87 68.3999 110.2C68.3999 111.357 68.5651 112.348 68.8955 113.174C69.226 113.835 69.5564 114.33 69.8868 114.826C70.5477 115.487 71.3738 115.983 72.5303 116.148C73.3564 116.313 74.1825 116.313 75.0086 116.148C75.339 115.983 75.6694 115.983 75.9999 115.817C76.6607 115.487 77.1564 115.157 77.652 114.661C78.4781 113.67 79.139 112.513 79.139 110.696C79.139 110.2 79.139 109.87 78.9738 109.539C78.8086 109.209 78.8086 108.878 78.6433 108.548C78.4781 108.217 78.3129 107.887 78.1477 107.722C77.652 106.896 76.826 106.235 75.8346 105.904C75.6694 105.739 75.339 105.739 75.0086 105.739C74.6781 105.574 74.1825 105.574 73.6868 105.574C73.6868 104.913 73.5216 104.913 73.5216 104.913ZM61.9564 104.913C61.6259 104.913 61.2955 105.078 60.7999 105.078C60.3042 105.243 59.9738 105.409 59.4781 105.574C57.9912 106.4 56.8346 107.557 56.5042 109.374C56.339 110.365 56.5042 111.522 56.6694 112.348C57.1651 114 58.4868 115.157 60.139 115.652C60.6346 115.817 61.1303 115.817 61.6259 115.817C62.1216 115.817 62.7825 115.817 63.1129 115.652C63.6086 115.652 63.939 115.487 64.4346 115.322C64.9303 115.157 65.2607 115.157 65.9216 115.157C65.9216 114.33 65.7564 113.339 65.7564 112.348C65.7564 111.852 65.9216 111.522 66.0868 111.191C66.252 110.861 66.5825 110.861 67.0781 110.696C67.0781 110.53 67.0781 110.365 67.0781 110.365C65.5912 110.365 63.939 110.365 62.452 110.365C62.452 110.53 62.452 110.696 62.452 110.696C62.9477 110.861 63.4433 111.026 63.7738 111.357C63.939 111.687 63.939 112.348 63.939 113.009C63.939 113.339 63.939 113.67 63.939 113.835C63.7738 114.33 63.4433 114.661 62.9477 114.826C62.7825 114.991 62.452 114.991 62.1216 114.991C61.4607 114.991 60.9651 114.826 60.6346 114.661C60.4694 114.496 60.3042 114.33 60.139 114.33C59.9738 114.165 59.8086 114 59.6433 113.835C59.3129 113.339 58.9825 112.678 58.8173 111.852C58.8173 111.522 58.652 111.357 58.652 111.026C58.4868 110.035 58.652 109.209 58.8173 108.548C59.1477 107.557 59.6433 106.73 60.3042 106.235C60.7999 105.904 61.6259 105.574 62.452 105.574C62.9477 105.574 63.4433 105.739 63.939 106.07C64.5999 106.565 65.0955 107.226 65.4259 107.887C65.4259 108.052 65.4259 108.052 65.5912 108.217C65.7564 108.217 65.9216 108.052 65.9216 108.052C65.9216 106.73 65.9216 106.565 65.7564 105.409C65.2607 105.243 64.7651 105.078 64.1042 104.913C63.6086 104.748 62.9477 104.748 62.2868 104.748C62.452 104.913 62.2868 104.913 61.9564 104.913ZM92.6868 114.826C92.5216 114.661 92.3564 114.661 92.1912 114.33C92.026 114 92.026 113.339 92.026 112.678C92.026 110.2 92.026 107.887 92.026 105.409C94.5042 105.409 95.9912 106.4 96.652 108.052C96.9825 108.878 97.1477 110.035 96.9825 111.191C96.8173 112.843 96.1564 114 94.9999 114.496C94.6694 114.661 94.1738 114.826 93.6781 114.826C93.3477 114.991 93.0173 114.991 92.6868 114.826ZM92.3564 104.748C91.6955 104.748 91.1999 104.748 90.539 104.748C90.0433 104.748 89.3825 104.913 88.8868 104.913C88.8868 105.078 88.8868 105.078 88.8868 105.243C89.2173 105.409 89.7129 105.409 89.8781 105.739C90.0433 106.07 90.0433 106.565 90.0433 107.061V113.339C90.0433 113.835 90.0433 114.33 89.7129 114.496C89.3825 114.826 89.052 114.826 88.5564 114.991V115.322C89.052 115.322 89.5477 115.322 89.8781 115.322C90.539 115.322 91.3651 115.322 92.026 115.322C92.5216 115.322 93.1825 115.322 93.6781 115.322C94.1738 115.322 94.8346 115.157 95.3303 115.157C97.3129 114.661 98.4694 113.504 98.9651 111.687C99.2955 110.696 99.2955 109.374 98.9651 108.548C98.7999 107.557 98.3042 106.896 97.6433 106.235C96.4868 105.243 94.8346 104.583 92.6868 104.583C92.6868 104.748 92.5216 104.748 92.3564 104.748ZM87.8955 71.7044L92.5216 85.5826H83.2694L87.8955 71.7044ZM87.3999 66.913L80.626 84.9217C80.626 84.9217 78.8086 90.2087 77.3216 93.8435C75.8346 97.313 73.5216 97.6435 73.3564 97.6435C73.1912 97.6435 71.3738 97.4783 70.5477 96.6522C69.5564 95.8261 69.0607 95.4957 69.0607 93.8435C68.8955 92.1913 69.0607 72.6957 69.0607 72.6957C69.0607 72.6957 69.0607 70.5478 70.2173 69.2261C71.3738 68.0696 72.6955 68.0696 72.6955 68.0696V66.913H58.9825V67.9044C58.9825 67.9044 61.9564 68.2348 62.7825 69.3913C63.6086 70.5478 63.7738 71.5391 63.7738 72.2C63.7738 72.8609 63.7738 92.1913 63.7738 92.1913C63.7738 92.1913 64.1042 96.6522 59.8086 96.6522C59.4781 96.6522 53.6955 96.6522 53.6955 96.6522C50.3912 96.6522 49.7303 94.0087 49.7303 92.8522V92.687C49.7303 92.3565 49.7303 92.0261 49.7303 91.5304C49.7303 90.3739 49.7303 87.8957 49.7303 85.087C49.7303 81.7826 49.7303 78.313 49.7303 76V72.2C49.7303 71.5391 49.8955 70.5478 50.7216 69.5565C51.5477 68.4 54.5216 68.0696 54.5216 68.0696V67.0783H49.5651H44.2781H39.4868V68.0696C39.4868 68.0696 42.4607 68.4 43.2868 69.5565C44.1129 70.713 44.2781 71.7044 44.2781 72.2V76C44.2781 78.4783 44.2781 81.9478 44.2781 85.087C44.2781 87.8957 44.2781 90.3739 44.2781 91.5304C44.2781 92.0261 44.2781 92.3565 44.2781 92.687V92.8522C44.1129 94.0087 43.6173 96.8174 40.3129 96.6522C40.1477 96.6522 38.8259 96.6522 38.8259 96.6522C36.1825 96.6522 34.3651 96.6522 34.3651 96.6522C30.0694 96.8174 30.3999 92.1913 30.3999 92.1913C30.3999 92.1913 30.3999 72.8609 30.3999 72.2C30.3999 71.5391 30.5651 70.5478 31.3912 69.3913C32.2173 68.2348 35.1912 67.9044 35.1912 67.9044V66.913H21.4781V68.0696C21.4781 68.0696 22.6346 68.0696 23.9564 69.2261C24.7825 70.5478 24.7825 72.6957 24.7825 72.6957C24.7825 72.6957 24.9477 92.1913 24.7825 93.8435C24.6173 95.4957 24.2868 95.9913 23.2955 96.6522C22.3042 97.4783 20.4868 97.6435 20.4868 97.6435V98.8H73.5216H84.5912V97.6435C84.426 97.6435 84.2607 97.6435 83.7651 97.4783C82.2781 97.1478 81.2868 96.487 81.1216 95.6609C80.7912 94.8348 81.1216 93.513 81.1216 93.513L82.7738 88.2261H93.6781C93.6781 88.2261 94.8346 91.2 95.3303 93.0174C95.826 94.6696 95.9912 95.3304 95.4955 96.487C94.9999 97.6435 92.852 97.8087 92.852 97.8087V98.9652H114.826V97.8087C114.826 97.8087 113.835 97.8087 112.843 97.1478C111.191 95.9913 112.513 93.8435 112.513 93.8435L117.635 85.7478C117.635 85.7478 120.774 90.8696 121.93 92.687C123.087 94.5043 123.582 95.3304 123.087 96.6522C122.591 97.8087 120.443 97.9739 120.443 97.9739V99.1304H133V97.9739C132.835 97.9739 132.504 97.8087 132.009 97.6435C130.026 96.9826 128.869 94.5044 128.869 94.5044L120.774 81.4522C120.774 81.4522 122.261 79.3044 126.391 73.687C130.356 68.2348 132.504 68.4 132.504 68.4V67.0783H121.93V68.4C122.096 68.4 122.261 68.4 122.426 68.4C126.061 69.0609 124.409 72.0348 124.409 72.0348L119.287 79.3044C119.287 79.3044 116.313 74.5131 114.496 71.3739C112.678 68.2348 116.809 67.9044 116.809 67.9044V66.7478H104.582V68.0696C104.582 68.0696 104.913 68.0696 105.904 68.5652C107.226 69.2261 108.548 71.3739 108.548 71.3739L116.148 83.7652C116.148 83.7652 109.704 92.5217 108.878 93.8435C108.052 95.1652 106.73 96.487 105.243 97.313C104.417 97.8087 104.087 97.8087 103.756 97.8087C103.756 97.8087 102.93 97.6435 102.435 97.1478C101.443 96.3217 100.782 94.1739 100.782 94.1739L91.1999 66.4174L87.3999 66.913ZM87.7303 44.9391C88.8868 44.6087 87.2346 44.4435 86.9042 43.6174C86.0781 40.9739 89.8781 41.1391 90.3738 43.1217C91.1999 45.9304 88.0607 47.7478 86.2433 48.7391C86.4086 47.087 86.4086 46.0957 85.4173 44.7739C85.5825 44.4435 85.5825 44.4435 85.9129 44.2783C86.2433 44.7739 86.5738 44.9391 87.2346 44.9391C87.3999 44.9391 87.5651 44.9391 87.7303 44.9391ZM76.9912 36.1826C76.8259 36.1826 76.8259 36.1826 76.9912 36.1826C76.4955 36.1826 76.1651 36.1826 75.8346 36.3478C75.6694 36.5131 75.5042 36.6783 75.6694 37.0087C75.8346 37.6696 76.1651 37.8348 76.1651 38.3304C75.9999 38.3304 75.9999 38.3304 75.8346 38.3304C74.0173 38.8261 72.0346 39.487 71.539 40.9739V41.1391C71.3738 41.1391 71.3738 40.9739 71.2086 40.9739C70.2173 40.4783 70.052 40.9739 69.7216 40.9739C71.2086 42.4609 68.5651 43.7826 68.2346 45.9304C66.5825 45.9304 66.9129 41.6348 64.2694 40.6435C63.6086 40.9739 63.1129 40.6435 62.6173 40.6435C62.1216 40.6435 61.9564 40.8087 61.7912 40.9739C66.7477 43.1217 62.9477 50.0609 68.7303 51.8783C69.3912 52.7044 70.5477 53.2 71.0433 53.8609C71.539 54.3565 71.3738 54.8522 71.3738 54.8522C74.0173 56.0087 79.139 55.8435 82.1129 55.0174C82.1129 55.0174 82.1129 54.3565 82.6086 53.8609C83.5999 53.0348 84.7564 51.8783 85.4173 50.7217C87.3999 49.7304 89.052 48.9044 90.3738 47.2522C91.5303 45.9304 92.0259 43.7826 90.8694 42.1304C89.052 39.3217 85.252 40.1478 85.0868 42.4609C84.7564 42.6261 84.426 42.9565 83.9303 42.9565C83.4346 42.2957 82.7738 41.6348 83.2694 40.6435C82.939 40.3131 82.4433 40.3131 81.9477 40.9739C81.9477 40.9739 81.7825 40.9739 81.7825 41.1391C81.7825 40.9739 81.6173 40.9739 81.452 40.8087C80.7912 39.6522 79.6346 38.9913 77.652 38.4957C77.4868 38.4957 77.4868 38.4957 77.3216 38.3304C77.3216 37.8348 77.652 37.6696 77.8172 37.0087C77.9825 36.6783 77.8173 36.5131 77.652 36.3478C77.652 36.1826 77.3216 36.1826 76.9912 36.1826Z" fill="url(#paint0_linear_167_12)"/>
<path d="M137.626 65.4261C137.461 65.2609 137.461 65.2609 137.461 65.2609C137.461 65.2609 137.295 65.2609 137.295 65.0956C137.626 65.0956 137.791 64.9304 137.956 64.7652C138.122 64.6 138.122 64.4348 138.122 64.1043C138.122 63.9391 138.122 63.7739 137.956 63.6087C137.956 63.4435 137.791 63.4435 137.626 63.2783C137.461 63.2783 137.295 63.113 137.13 63.113C137.13 63.113 136.8 63.113 136.139 63.113H135.478V66.2522H136.139V64.9304H136.304C136.469 64.9304 136.635 64.9304 136.8 65.0956C136.965 65.2609 137.13 65.4261 137.295 65.7565L137.626 66.2522H138.452L138.122 65.5913C137.791 65.5913 137.626 65.4261 137.626 65.4261ZM137.13 64.6C136.965 64.6 136.8 64.6 136.469 64.6H136.139V63.7739H136.469C136.8 63.7739 137.13 63.7739 137.13 63.7739C137.295 63.7739 137.295 63.7739 137.295 63.9391V64.1043C137.295 64.2696 137.295 64.2696 137.295 64.2696C137.295 64.4348 137.13 64.6 137.13 64.6Z" fill="url(#paint1_linear_167_12)"/>
<path d="M137.296 61.7912C135.148 61.2955 133.165 63.2781 133.661 65.426C133.826 66.5825 134.817 67.4086 135.809 67.739C138.122 68.3999 140.27 66.2521 139.609 63.939C139.443 62.9477 138.452 61.9564 137.296 61.7912ZM137.296 67.5738C135.313 67.9042 133.661 66.2521 133.991 64.2695C134.156 63.1129 135.148 62.2868 136.139 62.1216C138.122 61.7912 139.774 63.4434 139.443 65.426C139.278 66.4173 138.287 67.4086 137.296 67.5738Z" fill="url(#paint2_linear_167_12)"/>
<defs>
<linearGradient id="paint0_linear_167_12" x1="26.8786" y1="21.4784" x2="106.496" y2="121.116" gradientUnits="userSpaceOnUse">
<stop stop-color="#BD9B54"/>
<stop offset="0.338542" stop-color="#DEC86C"/>
<stop offset="0.484375" stop-color="#F3EE90"/>
<stop offset="0.635417" stop-color="#D8BB5B"/>
<stop offset="1" stop-color="#D4B357"/>
</linearGradient>
<linearGradient id="paint1_linear_167_12" x1="135.647" y1="62.5367" x2="138.801" y2="65.1984" gradientUnits="userSpaceOnUse">
<stop stop-color="#BD9B54"/>
<stop offset="0.338542" stop-color="#DEC86C"/>
<stop offset="0.484375" stop-color="#F3EE90"/>
<stop offset="0.635417" stop-color="#D8BB5B"/>
<stop offset="1" stop-color="#D4B357"/>
</linearGradient>
<linearGradient id="paint2_linear_167_12" x1="133.933" y1="60.586" x2="140.156" y2="66.1291" gradientUnits="userSpaceOnUse">
<stop stop-color="#BD9B54"/>
<stop offset="0.338542" stop-color="#DEC86C"/>
<stop offset="0.484375" stop-color="#F3EE90"/>
<stop offset="0.635417" stop-color="#D8BB5B"/>
<stop offset="1" stop-color="#D4B357"/>
</linearGradient>
</defs>
</svg>
