<svg width="58" height="53" viewBox="0 0 58 53" fill="none" xmlns="http://www.w3.org/2000/svg">
<g clip-path="url(#clip0_13_1324)">
<path d="M52.1604 10.6048H44.9018L41.1816 0L17.9516 0.20417L14.1459 10.6408L13.4831 10.6288L13.4617 3.00249L6.01063 2.90641L5.97856 10.6769L5.04851 10.7249C2.04455 10.7489 0.259277 13.1869 0.259277 17.2703V47.2953C0.259277 49.1208 0.900692 50.634 2.13007 51.6669C3.16703 52.5436 4.55676 53 6.14961 53H51.8397C55.2606 53 57.7301 50.4539 57.7301 46.935V16.4296C57.7408 12.8987 55.5493 10.6048 52.1604 10.6048ZM10.7892 5.96896L10.8106 11.2533H8.65112L8.6725 5.94494L10.7892 5.96896ZM55.0682 46.935C55.0682 49.1928 53.3364 49.9975 51.8504 49.9975H6.14961C4.94161 49.9975 2.93184 49.6492 2.93184 47.2953V17.2703C2.93184 13.7274 4.49262 13.7274 5.08058 13.7274L8.64043 13.5352V13.5232H10.8106V13.5713L15.9098 13.6794L19.7369 3.18264L39.3535 3.00249L43.0737 13.5953H52.1498C54.074 13.5953 55.0468 14.5441 55.0468 16.4176V46.935H55.0682Z" fill="#D8B47D"/>
<path d="M28.9949 19.6964C23.436 19.6964 18.9033 24.7766 18.9033 31.0338C18.9033 37.291 23.4253 42.3712 28.9949 42.3712C34.5538 42.3712 39.0865 37.291 39.0865 31.0338C39.0865 24.7766 34.5645 19.6964 28.9949 19.6964ZM28.9949 39.3567C24.9112 39.3567 21.5759 35.6216 21.5759 31.0218C21.5759 26.4339 24.9005 22.6868 28.9949 22.6868C33.0786 22.6868 36.4139 26.4219 36.4139 31.0218C36.4139 35.6216 33.0893 39.3567 28.9949 39.3567Z" fill="#D8B47D"/>
<path d="M28.9948 14.2438C20.7526 14.2438 14.0498 21.7741 14.0498 31.0338C14.0498 40.2934 20.7526 47.8237 28.9948 47.8237C37.237 47.8237 43.9397 40.2934 43.9397 31.0338C43.9397 21.7741 37.237 14.2438 28.9948 14.2438ZM28.9948 44.8212C22.2278 44.8212 16.7224 38.6361 16.7224 31.0338C16.7224 23.4314 22.2278 17.2463 28.9948 17.2463C35.7617 17.2463 41.2672 23.4314 41.2672 31.0338C41.2779 38.6361 35.7724 44.8212 28.9948 44.8212Z" fill="#D8B47D"/>
<path d="M48.9214 16.3936C46.8796 16.3936 45.2119 18.2672 45.2119 20.5611C45.2119 22.855 46.8796 24.7285 48.9214 24.7285C50.9633 24.7285 52.6309 22.855 52.6309 20.5611C52.6309 18.2672 50.9633 16.3936 48.9214 16.3936ZM48.9214 22.5547C47.9379 22.5547 47.1362 21.654 47.1362 20.5491C47.1362 19.4441 47.9379 18.5434 48.9214 18.5434C49.9049 18.5434 50.7067 19.4441 50.7067 20.5491C50.7067 21.654 49.9049 22.5547 48.9214 22.5547Z" fill="#D8B47D"/>
</g>
<defs>
<clipPath id="clip0_13_1324">
<rect width="57.4815" height="53" fill="white" transform="translate(0.259277)"/>
</clipPath>
</defs>
</svg>
