<svg width="26" height="31" viewBox="0 0 26 31" fill="none" xmlns="http://www.w3.org/2000/svg">
<path d="M18.617 0.138C18.6868 0.138 18.7567 0.138 18.8304 0.138C19.0017 2.25366 18.1941 3.83448 17.2127 4.97926C16.2497 6.11613 14.9311 7.21875 12.7983 7.05145C12.656 4.96609 13.4649 3.50251 14.445 2.36037C15.3539 1.29595 17.0204 0.348776 18.617 0.138Z" fill="black"/>
<path d="M25.0734 22.1588C25.0734 22.1799 25.0734 22.1983 25.0734 22.2181C24.474 24.0334 23.619 25.5892 22.5757 27.033C21.6233 28.3437 20.4561 30.1077 18.372 30.1077C16.5712 30.1077 15.3751 28.9497 13.5295 28.9181C11.5771 28.8865 10.5035 29.8864 8.7185 30.138C8.51431 30.138 8.31012 30.138 8.10988 30.138C6.79912 29.9483 5.74128 28.9102 4.97064 27.9749C2.69821 25.2111 0.942181 21.6411 0.615479 17.0725C0.615479 16.6246 0.615479 16.178 0.615479 15.7301C0.7538 12.4605 2.34252 9.80205 4.45423 8.51368C5.56871 7.82866 7.10079 7.24507 8.80676 7.50591C9.53789 7.6192 10.2848 7.8695 10.9395 8.11716C11.56 8.3556 12.3359 8.77847 13.071 8.75607C13.569 8.74158 14.0643 8.48206 14.5662 8.29895C16.0364 7.76806 17.4776 7.15944 19.3772 7.44531C21.6601 7.79045 23.2805 8.80481 24.2817 10.3698C22.3504 11.5989 20.8236 13.4511 21.0845 16.6141C21.3163 19.4872 22.9867 21.1681 25.0734 22.1588Z" fill="black"/>
</svg>
