<svg width="239" height="130" viewBox="0 0 239 130" fill="none" xmlns="http://www.w3.org/2000/svg">
<path d="M135.465 87.225C135.465 87.225 138.942 86.6595 140.094 84.5729C141.247 82.4864 140.498 79.8148 142.13 77.6697C143.705 75.5831 146.414 74.9786 154.442 74.9006C160.57 74.8421 161.165 69.07 161.088 66.9054C161.011 64.7408 159.417 60.0022 152.406 59.7487C148.238 59.5927 145.837 59.2417 142.899 57.4086C140.421 55.8681 140.767 48.4773 140.767 48.4773V19.1875C140.767 19.1875 140.517 15.7359 142.63 12.2453C144.589 9.02769 148.354 8.11116 148.354 8.11116L169.962 2.846C169.962 2.846 173.688 1.69547 176.147 2.846C178.548 3.95754 179.124 6.74612 179.124 6.74612L184.829 25.0962C184.829 25.0962 186.73 30.0103 185.405 33.3254C184.368 35.8995 181.871 37.6935 179.259 37.791C176.646 37.8885 167.772 34.5929 164.469 37.791C161.165 40.9891 162.298 44.8697 163.95 46.0983C165.602 47.3268 169.693 48.6529 173.343 49.0039C176.992 49.3549 181.256 49.3549 183.945 51.1294C186.634 52.904 186.903 54.2105 186.807 62.2448C186.73 70.2985 186.212 77.7282 182.562 82.2133C178.913 86.6985 172.651 87.069 167.254 87.2445C161.856 87.42 145.453 87.42 145.453 87.42C145.453 87.42 137.578 87.3615 135.465 87.225Z" fill="#00B586"/>
<path d="M194.779 87.4394C194.779 87.4394 199.139 86.5814 202.366 83.9878C206.457 80.7117 205.727 73.126 205.727 73.126L201.828 7.95506C201.828 7.95506 201.559 4.99098 202.942 3.41143C204.325 1.83188 208.32 1.42237 210.529 1.26637C212.738 1.11036 228.814 0.447342 231.004 0.349839C233.194 0.252336 235.825 0.349839 237.688 2.16339C239.552 3.97695 238.534 7.66255 238.169 10.3731C237.688 14.1172 236.613 29.3472 236.459 30.8292C236.305 32.3113 236.382 34.3003 234.826 35.5484C233.271 36.7964 231.484 36.7964 230.101 36.7964C228.718 36.7964 225.396 36.6599 223.302 36.7964C221.804 36.8744 217.847 36.4064 218.001 39.351C218.154 42.2371 220.824 41.2035 223.628 40.9695C226.337 40.7355 231.638 39.3705 233.847 41.2035C235.499 42.5686 235.23 55.049 234.654 56.531C234.077 58.013 232.291 59.3391 226.414 59.4366C220.536 59.5341 218.327 59.5536 218.346 62.0887C218.366 65.0137 220.959 64.6042 225.107 64.3507C229.256 64.0972 231.561 63.3367 233.117 63.9997C234.673 64.6627 235.287 65.3843 235.287 69.6159C235.287 73.8475 235.691 81.2187 234.961 84.2218C234.5 86.1719 233.655 87.1859 231.369 87.3419C229.083 87.4979 228.027 87.4199 228.027 87.4199L202.27 87.4394C202.346 87.4394 197.66 87.5759 194.779 87.4394Z" fill="#FE6BC7"/>
<path d="M0.224487 87.4395C0.224487 87.4395 3.66265 86.1329 7.19686 83.5199C10.7311 80.9068 10.2893 76.2071 10.2893 76.2071V19.246C10.2893 19.246 11.0384 11.0557 16.1476 8.03315C21.2569 5.01056 39.4465 0.97394 44.2868 1.51996C49.1271 2.06597 56.0035 5.63458 59.0191 10.4902C62.0347 15.3459 64.5701 19.129 65.1271 28.7623C65.6649 38.025 64.9734 43.2902 62.6877 47.8533C60.3828 52.3969 55.6385 53.4695 48.7814 54.0935C41.9243 54.7175 38.9471 54.971 38.0635 55.3415C36.5461 55.9851 37.2952 56.9016 38.6974 57.4281C40.0995 57.9546 49.0311 58.4616 52.3732 58.1106C55.7154 57.7596 57.905 59.7097 58.7117 62.9273C59.4416 65.7938 60.1139 69.3624 59.941 74.6276C59.7682 79.8928 58.7117 82.0768 56.1763 84.3194C53.6217 86.5424 45.6121 87.069 38.851 87.225C32.4741 87.3615 21.2568 86.952 17.665 87.1275C14.0732 87.303 0.224487 87.4395 0.224487 87.4395Z" fill="#02D1D4"/>
<path d="M30.3035 25.9541C30.9949 24.1406 32.7813 22.8926 34.7212 22.8146C37.6216 22.7171 40.0994 26.4417 40.253 31.1413C40.4067 35.8409 38.1978 39.741 35.2975 39.8386C34.3947 39.8776 33.2614 39.507 32.3395 38.649" stroke="#1D1D1B" stroke-width="1.94355" stroke-miterlimit="10" stroke-linecap="round" stroke-linejoin="round"/>
<path d="M39.6964 32.6039C39.5811 35.763 38.3711 38.2786 36.9881 38.2201C35.6052 38.1616 34.5679 36.465 34.6832 33.3254C34.7216 32.1554 34.9905 29.8933 35.2978 29.0158C35.7972 27.4948 36.5271 26.7927 37.3915 26.8317C38.7552 26.8512 39.7924 29.4448 39.6964 32.6039Z" fill="#1D1D1B"/>
<path d="M50.7213 23.9651C51.4128 22.1515 53.1991 20.9035 55.1391 20.8255C58.0394 20.728 60.5172 24.4526 60.6709 29.1522C60.8245 33.8519 58.6157 37.752 55.7153 37.8495C54.8125 37.8885 53.6793 37.518 52.7573 36.6599" stroke="#1D1D1B" stroke-width="1.94355" stroke-miterlimit="10" stroke-linecap="round" stroke-linejoin="round"/>
<path d="M60.1141 30.6147C59.9989 33.7738 58.7888 36.2894 57.4058 36.2309C56.0229 36.1724 54.9857 34.4758 55.1009 31.3362C55.1393 30.1662 55.4082 27.9041 55.7156 27.0266C56.215 25.5056 56.9448 24.8035 57.8092 24.8425C59.1921 24.862 60.2101 27.4751 60.1141 30.6147Z" fill="#1D1D1B"/>
<path d="M73.8284 87.3614C73.8284 87.3614 78.2077 86.5229 80.8968 81.0823C83.4898 75.8561 89.0216 30.5173 93.7275 13.1618C94.7455 9.41767 97.1272 5.71256 105.271 5.59555C113.415 5.47855 115.97 10.8997 116.45 12.7523C116.93 14.6048 129.377 77.5137 129.934 81.0433C130.933 87.4979 122.654 87.576 122.654 87.576C122.654 87.576 114.011 88.707 114.088 83.5393C114.145 79.8537 113.089 78.1377 111.302 77.8452C108.633 77.4161 102.89 77.0651 99.1248 77.8257C97.2233 78.1962 95.8787 78.6642 95.7443 82.3888C95.533 88.0635 86.3902 87.615 81.6075 87.576C75.8836 87.5174 73.8284 87.3614 73.8284 87.3614Z" fill="#FFE603"/>
<path d="M102.755 62.4786H106.788C106.788 62.4786 108.901 62.5956 109.612 61.3086C110.457 59.7486 110.015 57.2135 110.015 57.2135L106.423 33.8518C106.423 33.8518 105.789 29.6982 104.81 29.6982C103.85 29.6982 102.985 33.8518 102.985 33.8518L98.8363 57.3695C98.8363 57.3695 98.3945 60.0021 99.4702 61.3476C100.45 62.5566 102.755 62.4786 102.755 62.4786Z" fill="white"/>
<path d="M8.84853 128.899C8.44517 128.899 8.11864 128.762 7.84973 128.509C7.58082 128.236 7.46558 127.904 7.46558 127.495V102.086C7.46558 101.676 7.60003 101.345 7.84973 101.072C8.11864 100.799 8.44517 100.682 8.84853 100.682H25.54C25.9241 100.682 26.2506 100.818 26.5196 101.072C26.7885 101.325 26.9229 101.657 26.9229 102.066C26.9229 102.437 26.7885 102.749 26.5196 103.002C26.2506 103.275 25.9241 103.392 25.54 103.392H10.2315V113.377H21.3719C21.7753 113.377 22.1018 113.513 22.3707 113.767C22.6396 114.04 22.7549 114.352 22.7549 114.742C22.7549 115.132 22.6204 115.463 22.3707 115.717C22.1018 115.99 21.7753 116.107 21.3719 116.107H10.2315V126.188H25.54C25.9241 126.188 26.2506 126.325 26.5196 126.578C26.7885 126.832 26.9229 127.163 26.9229 127.514C26.9229 127.924 26.7885 128.255 26.5196 128.509C26.2506 128.762 25.9241 128.879 25.54 128.879H8.84853V128.899Z" fill="#8856C7"/>
<path d="M44.1714 128.898C43.768 128.898 43.4415 128.761 43.1726 128.508C42.9037 128.235 42.7885 127.903 42.7885 127.494V102.084C42.7885 101.675 42.9229 101.343 43.1726 101.07C43.4415 100.797 43.768 100.68 44.1714 100.68C44.594 100.68 44.9589 100.856 45.247 101.187L62.265 123.886V102.084C62.265 101.675 62.3994 101.343 62.6491 101.07C62.9181 100.797 63.2446 100.68 63.6479 100.68C64.0321 100.68 64.3586 100.817 64.6275 101.07C64.8964 101.343 65.0309 101.675 65.0309 102.084V127.494C65.0309 127.903 64.8964 128.235 64.6275 128.508C64.3586 128.781 64.0321 128.898 63.6479 128.898C63.4559 128.898 63.2638 128.859 63.0717 128.781C62.8796 128.703 62.726 128.586 62.6107 128.41L45.5544 105.731V127.494C45.5544 127.903 45.4199 128.235 45.151 128.508C44.8821 128.781 44.5556 128.898 44.1714 128.898Z" fill="#8856C7"/>
<path d="M95.3402 129.268C93.4194 129.268 91.6139 128.898 89.9429 128.137C88.2718 127.396 86.7928 126.343 85.5251 125.017C84.2574 123.672 83.2586 122.131 82.5479 120.395C81.8372 118.64 81.4723 116.768 81.4723 114.779C81.4723 112.81 81.818 110.938 82.5287 109.202C83.2202 107.447 84.219 105.926 85.4867 104.6C86.7544 103.274 88.2334 102.24 89.9044 101.48C91.5755 100.719 93.381 100.349 95.3402 100.349C97.0497 100.349 98.6055 100.602 100.008 101.109C101.41 101.616 102.754 102.416 104.06 103.527C104.272 103.703 104.406 103.898 104.425 104.132C104.464 104.366 104.425 104.58 104.329 104.776C104.233 104.99 104.099 105.127 103.907 105.224C103.868 105.419 103.734 105.556 103.542 105.653C103.35 105.751 103.139 105.79 102.889 105.77C102.639 105.751 102.389 105.634 102.159 105.439C101.237 104.62 100.219 104.015 99.1241 103.605C98.0293 103.215 96.7616 103.001 95.321 103.001C93.7844 103.001 92.3438 103.313 90.9993 103.937C89.6547 104.561 88.4831 105.419 87.4651 106.511C86.4471 107.603 85.6403 108.851 85.0641 110.275C84.4879 111.698 84.1998 113.2 84.1998 114.799C84.1998 116.437 84.4879 117.977 85.0641 119.381C85.6403 120.805 86.4471 122.053 87.4651 123.145C88.4831 124.237 89.6739 125.076 90.9993 125.7C92.3438 126.324 93.7844 126.616 95.321 126.616C96.6271 126.616 97.8564 126.402 99.0281 125.973C100.181 125.544 101.295 124.92 102.332 124.101C102.62 123.867 102.927 123.769 103.235 123.808C103.561 123.867 103.83 124.003 104.08 124.237C104.31 124.471 104.445 124.783 104.445 125.173C104.445 125.368 104.425 125.544 104.368 125.7C104.329 125.856 104.214 126.012 104.041 126.187C102.831 127.318 101.487 128.118 99.9885 128.586C98.5095 129.034 96.9536 129.268 95.3402 129.268ZM104.464 125.154L101.756 124.569V117.295H96.2046C95.8012 117.295 95.4747 117.178 95.2058 116.924C94.9368 116.69 94.8216 116.378 94.8216 116.027C94.8216 115.657 94.9561 115.364 95.2058 115.13C95.4747 114.896 95.8012 114.779 96.2046 114.779H103.081C103.484 114.779 103.811 114.916 104.08 115.15C104.349 115.403 104.464 115.735 104.464 116.144V125.154Z" fill="#8856C7"/>
<path d="M122.366 128.898C121.982 128.898 121.655 128.761 121.386 128.508C121.117 128.235 120.983 127.903 120.983 127.494V102.084C120.983 101.694 121.117 101.363 121.386 101.09C121.655 100.817 121.982 100.68 122.366 100.68C122.75 100.68 123.077 100.817 123.346 101.09C123.614 101.363 123.749 101.694 123.749 102.084V126.226H137.674C138.059 126.226 138.385 126.363 138.654 126.597C138.923 126.85 139.057 127.162 139.057 127.552C139.057 127.942 138.923 128.254 138.654 128.508C138.385 128.761 138.059 128.878 137.674 128.878H122.366V128.898Z" fill="#8856C7"/>
<path d="M155.595 128.898C155.192 128.898 154.865 128.761 154.596 128.508C154.328 128.235 154.212 127.903 154.212 127.494V102.084C154.212 101.675 154.347 101.343 154.596 101.07C154.865 100.797 155.192 100.68 155.595 100.68C155.999 100.68 156.325 100.817 156.594 101.07C156.863 101.343 156.978 101.675 156.978 102.084V127.494C156.978 127.903 156.844 128.235 156.594 128.508C156.325 128.781 155.999 128.898 155.595 128.898Z" fill="#8856C7"/>
<path d="M183.331 129.268C181.813 129.268 180.411 129.054 179.105 128.605C177.818 128.157 176.685 127.533 175.744 126.714C174.802 125.895 174.072 124.939 173.573 123.866C173.381 123.476 173.381 123.125 173.554 122.794C173.727 122.462 174.034 122.248 174.457 122.131C174.783 122.033 175.11 122.072 175.436 122.248C175.763 122.423 175.993 122.677 176.166 123.008C176.531 123.71 177.05 124.334 177.741 124.881C178.433 125.427 179.239 125.856 180.2 126.168C181.141 126.46 182.197 126.616 183.331 126.616C184.598 126.616 185.712 126.402 186.673 125.992C187.652 125.563 188.421 124.959 188.978 124.139C189.535 123.32 189.823 122.345 189.823 121.195C189.823 119.732 189.285 118.465 188.228 117.392C187.172 116.32 185.482 115.657 183.215 115.364C180.43 115.033 178.26 114.155 176.704 112.751C175.129 111.347 174.361 109.612 174.361 107.564C174.361 106.101 174.745 104.814 175.513 103.742C176.281 102.65 177.357 101.811 178.702 101.226C180.046 100.641 181.602 100.329 183.369 100.329C184.675 100.329 185.866 100.544 186.922 100.973C187.998 101.402 188.92 101.948 189.727 102.63C190.514 103.313 191.167 104.073 191.667 104.892C191.897 105.282 191.974 105.653 191.897 106.023C191.82 106.394 191.609 106.667 191.283 106.862C190.918 107.037 190.572 107.057 190.188 106.94C189.823 106.823 189.535 106.589 189.343 106.257C188.978 105.711 188.536 105.185 187.998 104.678C187.46 104.19 186.826 103.8 186.058 103.508C185.29 103.215 184.387 103.059 183.311 103.04C181.429 103.04 179.931 103.449 178.798 104.249C177.664 105.048 177.088 106.238 177.088 107.779C177.088 108.598 177.299 109.358 177.722 110.041C178.144 110.723 178.855 111.328 179.835 111.815C180.814 112.303 182.14 112.673 183.811 112.927C186.769 113.356 188.978 114.292 190.418 115.696C191.859 117.1 192.569 118.952 192.569 121.214C192.569 122.521 192.339 123.671 191.878 124.686C191.417 125.7 190.764 126.558 189.919 127.24C189.074 127.923 188.094 128.449 186.961 128.82C185.828 129.19 184.617 129.268 183.331 129.268Z" fill="#8856C7"/>
<path d="M210.433 128.898C210.03 128.898 209.703 128.761 209.434 128.508C209.165 128.235 209.05 127.903 209.05 127.494V102.084C209.05 101.675 209.184 101.343 209.434 101.07C209.703 100.797 210.03 100.68 210.433 100.68C210.836 100.68 211.163 100.817 211.432 101.07C211.701 101.343 211.816 101.675 211.816 102.084V113.356H229.199V102.084C229.199 101.675 229.333 101.343 229.583 101.07C229.852 100.797 230.178 100.68 230.582 100.68C230.985 100.68 231.312 100.817 231.58 101.07C231.849 101.343 231.965 101.675 231.965 102.084V127.494C231.965 127.903 231.83 128.235 231.58 128.508C231.312 128.781 230.985 128.898 230.582 128.898C230.178 128.898 229.852 128.761 229.583 128.508C229.314 128.235 229.199 127.903 229.199 127.494V115.891H211.816V127.494C211.816 127.903 211.681 128.235 211.432 128.508C211.163 128.781 210.836 128.898 210.433 128.898Z" fill="#8856C7"/>
</svg>
