<svg width="151" height="151" viewBox="0 0 151 151" fill="none" xmlns="http://www.w3.org/2000/svg">
<path d="M127.675 0.0703125H24.1677C11.3825 0.0703125 0.921631 10.531 0.921631 23.3163V126.824C0.921631 139.609 11.3825 150.07 24.1677 150.07H127.675C140.461 150.07 150.922 139.609 150.922 126.824V23.3163C150.922 10.531 140.461 0.0703125 127.675 0.0703125ZM48.5182 38.0181C54.3913 38.0181 59.1524 44.0976 59.1524 51.5971C59.1524 59.0966 54.3913 65.1761 48.5182 65.1761C42.6451 65.1761 37.884 59.0966 37.884 51.5971C37.884 44.0976 42.6451 38.0181 48.5182 38.0181ZM40.2917 116.714C40.6001 111.536 42.0159 106.658 44.2993 102.306L44.2974 102.305C44.3045 102.291 44.3134 102.278 44.3208 102.264C44.6665 101.607 45.0343 100.964 45.419 100.332C45.4829 100.227 45.5494 100.124 45.6142 100.02C45.9574 99.4699 46.3143 98.9295 46.686 98.3996C46.7479 98.3107 46.808 98.2205 46.871 98.1323C47.2995 97.5334 47.7446 96.9479 48.2082 96.3773C48.2641 96.3082 48.3229 96.2417 48.3795 96.173C48.7946 95.6702 49.2234 95.1801 49.6647 94.701C49.7567 94.6008 49.8478 94.4999 49.9411 94.4008C50.444 93.8668 50.9601 93.3452 51.495 92.843C51.5189 92.8203 51.5445 92.799 51.5688 92.7763C52.0717 92.3065 52.591 91.8548 53.1208 91.4145C53.2403 91.315 53.3598 91.216 53.4809 91.1181C54.6038 90.2087 55.7825 89.3663 57.0118 88.5965C57.1508 88.5095 57.2911 88.4245 57.4313 88.3394C57.9819 88.0051 58.5408 87.6838 59.1105 87.379C59.1872 87.338 59.2616 87.2939 59.3386 87.2533C59.9764 86.9182 60.627 86.6049 61.2865 86.3079C61.4354 86.2408 61.5866 86.1777 61.7368 86.1126C62.2908 85.8723 62.8519 85.6457 63.4201 85.433C63.5588 85.3812 63.6955 85.3261 63.8348 85.2758C64.5132 85.0319 65.2002 84.8076 65.8968 84.6041C66.0384 84.5627 66.1825 84.5269 66.325 84.4872C66.9075 84.325 67.4958 84.1777 68.0901 84.0446C68.2674 84.005 68.4438 83.9635 68.6221 83.9264C69.3385 83.7775 70.0613 83.6459 70.7931 83.5406C70.896 83.5258 71.0008 83.5165 71.104 83.5026C71.7462 83.4159 72.3946 83.3484 73.0474 83.2964C73.2465 83.2805 73.4455 83.2651 73.6456 83.2526C74.3987 83.2051 75.156 83.1724 75.9213 83.1724C76.6866 83.1724 77.4436 83.2051 78.197 83.2526C78.3971 83.2651 78.5961 83.2805 78.7952 83.2964C79.448 83.3484 80.0964 83.416 80.739 83.5026C80.8419 83.5165 80.9467 83.5258 81.0495 83.5406C81.781 83.6459 82.5041 83.7774 83.2208 83.9264C83.3988 83.9635 83.5752 84.0049 83.7522 84.0446C84.3465 84.1777 84.9348 84.325 85.5176 84.4872C85.6601 84.5269 85.8039 84.5627 85.9455 84.6041C86.6421 84.8076 87.3297 85.0319 88.0078 85.276C88.1468 85.326 88.2832 85.381 88.4216 85.4327C88.9903 85.6455 89.5518 85.8724 90.1065 86.1129C90.2563 86.1779 90.4069 86.2408 90.5554 86.3078C91.2153 86.6048 91.8659 86.9181 92.5037 87.2533C92.5807 87.2938 92.6554 87.338 92.7321 87.379C93.3019 87.6839 93.861 88.0055 94.4122 88.34C94.5519 88.4248 94.6912 88.5091 94.8296 88.5957C96.0601 89.366 97.2392 90.2091 98.363 91.1192C98.4828 91.2163 98.6014 91.3145 98.7202 91.4131C99.2516 91.8549 99.7728 92.3083 100.278 92.7797C100.3 92.8008 100.324 92.8208 100.347 92.842C100.882 93.3446 101.398 93.8664 101.902 94.4008C101.995 94.5 102.086 94.6008 102.178 94.701C102.619 95.1804 103.049 95.6708 103.464 96.1741C103.52 96.2422 103.578 96.3082 103.634 96.3767C104.098 96.9477 104.543 97.5336 104.972 98.1329C105.034 98.2206 105.094 98.3102 105.156 98.3984C105.528 98.9294 105.886 99.4709 106.23 100.023C106.294 100.125 106.359 100.227 106.422 100.33C106.807 100.963 107.175 101.606 107.522 102.264C107.529 102.278 107.538 102.291 107.545 102.305C107.545 102.305 107.544 102.306 107.543 102.306C109.826 106.658 111.243 111.536 111.551 116.714C111.551 116.714 77.6919 103.577 40.2917 116.714ZM103.325 65.1761C97.452 65.1761 92.6909 59.0966 92.6909 51.5971C92.6909 44.0976 97.452 38.0181 103.325 38.0181C109.198 38.0181 113.959 44.0976 113.959 51.5971C113.959 59.0966 109.198 65.1761 103.325 65.1761Z" fill="white"/>
</svg>
