<svg width="31" height="31" viewBox="0 0 31 31" fill="none" xmlns="http://www.w3.org/2000/svg">
<path fill-rule="evenodd" clip-rule="evenodd" d="M30.6938 9.51369V20.7623C30.6938 25.9404 26.4963 30.138 21.3182 30.138H18.035V19.6055H21.5275L22.1885 15.2757H18.035V12.4663C18.035 11.2765 18.6189 10.1196 20.4809 10.1196H22.3758V6.42886C22.3758 6.42886 20.6571 6.13139 19.0156 6.13139C15.5892 6.13139 13.3527 8.20263 13.3527 11.9705V15.2757H9.54071V19.6055H13.3527V30.127H10.0695C4.89143 30.127 0.693848 25.9294 0.693848 20.7513V9.51369C0.693848 4.33558 4.89143 0.138 10.0695 0.138H21.3182C26.4963 0.138 30.6938 4.33558 30.6938 9.51369Z" fill="#3B5998"/>
</svg>
