<svg width="30" height="31" viewBox="0 0 30 31" fill="none" xmlns="http://www.w3.org/2000/svg">
<path d="M29.6942 15.4977C29.6942 14.4847 29.5962 13.4389 29.4328 12.4586H15.2827V18.2428H23.3871C23.0603 20.1055 21.9819 21.7394 20.3807 22.7852L25.2172 26.5433C28.0603 23.8962 29.6942 20.0401 29.6942 15.4977Z" fill="#4280EF"/>
<path d="M15.2825 30.138C19.3347 30.138 22.7333 28.7982 25.2169 26.5106L20.3804 22.7852C19.0406 23.7002 17.3086 24.2231 15.2825 24.2231C11.361 24.2231 8.06039 21.5761 6.85126 18.0468L1.88403 21.8702C4.433 26.9355 9.59631 30.138 15.2825 30.138Z" fill="#34A353"/>
<path d="M6.85135 18.0141C6.23044 16.1514 6.23044 14.1253 6.85135 12.2626L1.88412 8.40643C-0.24002 12.6547 -0.24002 17.6546 1.88412 21.8702L6.85135 18.0141Z" fill="#F6B704"/>
<path d="M15.2825 6.08617C17.4066 6.05349 19.4981 6.87047 21.034 8.34103L25.315 4.02739C22.6026 1.47841 19.0079 0.105892 15.2825 0.138571C9.5963 0.138571 4.433 3.34112 1.88403 8.40639L6.85126 12.2625C8.06039 8.7005 11.361 6.08617 15.2825 6.08617Z" fill="#E54335"/>
</svg>
