<svg width="61" height="61" viewBox="0 0 61 61" fill="none" xmlns="http://www.w3.org/2000/svg">
<path d="M42.5406 28.9892C35.6596 25.1342 27.9056 22.7032 21.3696 18.2242C18.3726 16.1692 15.5246 21.0792 18.4926 23.1142C18.5516 23.1542 18.6136 23.1932 18.6746 23.2332C19.7026 28.8902 19.9576 34.6572 21.0206 40.3132C20.5896 40.5252 20.1616 40.7442 19.7336 40.9502C16.4846 42.5342 19.3856 47.4162 22.6206 45.8402C29.6116 42.4392 36.3106 38.5902 42.5256 33.8812C44.1186 32.6722 44.5456 30.1122 42.5406 28.9892ZM26.2266 37.6342C25.6246 34.0592 25.2666 30.4452 24.8286 26.8432C28.2936 28.6352 31.8756 30.2012 35.5786 31.9602C32.6636 34.0092 29.4876 35.8842 26.2266 37.6342Z" fill="white"/>
<path d="M58.3705 17.7893C51.7065 -0.535734 30.2365 -0.874735 14.4245 2.89127C10.9575 3.71527 12.3715 9.03727 15.7865 8.36827C4.00754 15.6723 -3.88446 29.1363 2.51054 43.3043C10.0085 59.9153 32.7395 66.5753 47.3655 55.6073C58.4975 47.2593 63.1295 30.8703 58.3705 17.7893ZM48.1045 47.1253C39.7585 57.5823 26.1475 57.1123 15.5805 50.4853C5.36154 44.0803 4.20354 31.7543 9.66354 21.8443C15.0455 12.0873 26.0815 7.66627 36.6495 8.45227C37.6695 8.52727 38.3815 8.12327 38.8235 7.50927C44.3635 8.95527 49.2245 12.0933 52.3465 17.9183C57.2435 27.0573 54.2565 39.4223 48.1045 47.1253Z" fill="white"/>
</svg>
