<svg width="34" height="34" viewBox="0 0 34 34" fill="none" xmlns="http://www.w3.org/2000/svg">
<g clip-path="url(#clip0_942_24)">
<path d="M27.067 0.948975H6.93278C3.62802 0.948975 0.948975 3.62802 0.948975 6.93278V27.067C0.948975 30.3718 3.62802 33.0509 6.93278 33.0509H27.067C30.3718 33.0509 33.0509 30.3718 33.0509 27.067V6.93278C33.0509 3.62802 30.3718 0.948975 27.067 0.948975Z" stroke="white" stroke-width="2" stroke-linecap="round" stroke-linejoin="round"/>
<path d="M20.5756 10.06H22.3646V6.17358H19.6692C15.873 6.17358 14.0461 8.44183 14.0461 11.6734V14.7388H11.0613V18.4354H14.0461V27.8311H18.5256V18.4307H21.5152L22.3646 14.7341H18.5256V12.2191C18.5256 11.1751 19.0903 10.06 20.5756 10.06Z" fill="white"/>
</g>
<defs>
<clipPath id="clip0_942_24">
<rect width="34" height="34" fill="white"/>
</clipPath>
</defs>
</svg>
