<svg width="34" height="34" viewBox="0 0 34 34" fill="none" xmlns="http://www.w3.org/2000/svg">
<g clip-path="url(#clip0_942_30)">
<path d="M6.8855 12.3472C7.00464 11.4111 7.29241 10.5043 7.73489 9.67084C8.88325 7.77273 10.677 7.07517 12.7507 7.02772C15.5757 6.95495 18.4023 6.95495 21.2305 7.02772C23.1286 7.07517 24.8559 7.70629 26.0232 9.36714C26.7273 10.4206 27.0932 11.6639 27.0719 12.9309C27.1147 15.6452 27.1336 18.3642 27.0719 21.0785C27.0198 23.2613 26.2605 25.131 24.2248 26.2414C23.2875 26.7359 22.2428 26.9918 21.1831 26.9864C18.3928 27.0196 15.6026 27.0481 12.8171 26.9864C10.7244 26.9342 8.90699 26.2319 7.74439 24.3338C7.2999 23.5028 7.01198 22.5973 6.89498 21.6622L6.8855 12.3472ZM17.0072 8.94007C15.6216 8.94007 14.236 8.91159 12.8503 8.94007C10.6865 8.99226 9.3578 10.0078 8.96394 11.8679C8.87348 12.2653 8.82261 12.6706 8.81208 13.078C8.81208 15.7021 8.76463 18.3262 8.81208 20.9456C8.85954 23.565 10.1835 24.9507 12.6985 25.0456C15.5457 25.15 18.3928 25.1405 21.24 25.0456C23.3374 24.9791 24.5617 23.9684 24.984 22.1557C25.0646 21.8323 25.1123 21.5016 25.1264 21.1687C25.1264 18.1791 25.302 15.1849 25.0362 12.2001C24.9872 11.3863 24.6456 10.6177 24.0743 10.036C23.5031 9.45429 22.7408 9.09876 21.9281 9.03497C20.2957 8.81194 18.6491 8.97328 17.0072 8.94007Z" fill="white"/>
<path d="M22.2175 17.0355C22.2175 18.0679 21.9113 19.0771 21.3378 19.9355C20.7642 20.7939 19.949 21.4629 18.9952 21.858C18.0414 22.253 16.9919 22.3564 15.9793 22.155C14.9668 21.9536 14.0367 21.4565 13.3067 20.7265C12.5767 19.9965 12.0795 19.0664 11.8781 18.0538C11.6767 17.0413 11.7801 15.9918 12.1752 15.038C12.5702 14.0842 13.2393 13.2689 14.0977 12.6954C14.9561 12.1218 15.9653 11.8157 16.9977 11.8157C18.379 11.8256 19.7009 12.3787 20.6776 13.3555C21.6544 14.3323 22.2075 15.6542 22.2175 17.0355ZM20.2767 17.0355C20.2898 16.3759 20.1063 15.7272 19.7494 15.1723C19.3925 14.6174 18.8785 14.1813 18.2728 13.9197C17.6671 13.6581 16.9973 13.5827 16.3486 13.7033C15.6999 13.8239 15.1019 14.1349 14.6307 14.5967C14.1594 15.0584 13.8364 15.6501 13.7028 16.2962C13.5691 16.9423 13.6309 17.6136 13.8803 18.2244C14.1296 18.8352 14.5552 19.358 15.1028 19.726C15.6504 20.094 16.2952 20.2906 16.9549 20.2908C17.8253 20.2859 18.6589 19.9396 19.2765 19.3264C19.8942 18.7132 20.2465 17.882 20.2577 17.0118L20.2767 17.0355Z" fill="white"/>
<path d="M22.3598 10.4349C22.695 10.4311 23.018 10.5603 23.2582 10.7942C23.4983 11.0281 23.636 11.3477 23.641 11.6829C23.6212 12.0074 23.4783 12.3121 23.2416 12.5348C23.0048 12.7576 22.692 12.8816 22.3669 12.8816C22.0418 12.8816 21.729 12.7576 21.4922 12.5348C21.2554 12.3121 21.1126 12.0074 21.0928 11.6829C21.0934 11.5176 21.1267 11.354 21.1908 11.2016C21.255 11.0493 21.3486 10.9111 21.4664 10.7951C21.5842 10.6791 21.7237 10.5875 21.8771 10.5257C22.0304 10.4639 22.1944 10.433 22.3598 10.4349Z" fill="white"/>
<path d="M27.067 0.948975H6.93278C3.62802 0.948975 0.948975 3.62802 0.948975 6.93278V27.067C0.948975 30.3718 3.62802 33.0509 6.93278 33.0509H27.067C30.3718 33.0509 33.0509 30.3718 33.0509 27.067V6.93278C33.0509 3.62802 30.3718 0.948975 27.067 0.948975Z" stroke="white" stroke-width="2" stroke-linecap="round" stroke-linejoin="round"/>
</g>
<defs>
<clipPath id="clip0_942_30">
<rect width="34" height="34" fill="white"/>
</clipPath>
</defs>
</svg>
