<svg width="63" height="69" viewBox="0 0 63 69" fill="none" xmlns="http://www.w3.org/2000/svg">
<path d="M22.9631 11.9674L21.8334 12.7602C12.2444 9.67971 6.82809 17.7998 8.59204 24.3048C10.3557 30.8096 17.425 36.707 31.9727 35.9143C11.7086 37.9036 7.30112 27.413 6.85749 22.8685C6.45125 18.7112 9.50312 7.25837 22.9631 11.9674Z" fill="white" stroke="white" stroke-width="0.25" stroke-miterlimit="22.9256" stroke-linecap="round" stroke-linejoin="round"/>
<path d="M9.25413 14.3557L7.33631 17.1452C2.30277 22.2509 4.35126 29.5139 7.28316 32.6735C11.3325 37.0381 17.9125 40.4912 32.8578 36.444C20.4616 40.9286 10.7877 38.4457 6.77931 34.0298C3.58017 30.5059 -1.86846 21.9893 9.25413 14.3557Z" fill="white" stroke="white" stroke-width="0.25" stroke-miterlimit="22.9256" stroke-linecap="round" stroke-linejoin="round"/>
<path d="M3.00389 28.6817C2.61546 32.5655 3.58901 35.2317 5.53501 37.3294C9.585 41.6944 18.4938 45.8486 33.8292 36.348C18.7018 47.0011 8.8979 43.1679 4.88943 38.7524C2.42612 36.0386 -0.0196484 31.8756 2.39 25.7522C2.45235 26.8173 2.67252 27.7841 3.00389 28.6817Z" fill="white" stroke="white" stroke-width="0.25" stroke-miterlimit="22.9256" stroke-linecap="round" stroke-linejoin="round"/>
<path d="M24.0503 11.4838L25.6558 11.1828C31.1726 0.374974 42.4446 2.56249 46.3427 9.54511C50.2403 16.527 49.1737 27.5455 36.2828 39.3449C54.9707 23.652 49.9998 11.0528 46.6138 6.84997C43.5161 3.00577 31.4745 -4.01041 24.0503 11.4838Z" fill="white" stroke="white" stroke-width="0.25" stroke-miterlimit="22.9256" stroke-linecap="round" stroke-linejoin="round"/>
<path d="M37.5553 1.74491L41.4755 2.44799C49.9328 2.42796 54.2184 10.2919 54.3663 15.461C54.5716 22.6025 51.8937 31.1454 35.9761 40.5494C50.1119 33.6977 56.1939 23.3196 55.9125 16.1703C55.6875 10.4649 53.2249 -1.36641 37.5553 1.74491Z" fill="white" stroke="white" stroke-width="0.25" stroke-miterlimit="22.9256" stroke-linecap="round" stroke-linejoin="round"/>
<path d="M54.6639 8.43757C58.2031 11.3702 59.5899 14.447 59.6887 17.8792C59.8932 25.0207 55.837 36.1491 35.0798 41.301C56.6155 37.2968 61.6902 25.671 61.4083 18.5229C61.2358 14.1297 59.8482 8.53224 52.7566 5.44727C53.5853 6.3964 54.2003 7.3981 54.6639 8.43757Z" fill="white" stroke="white" stroke-width="0.25" stroke-miterlimit="22.9256" stroke-linecap="round" stroke-linejoin="round"/>
<path d="M29.3358 11.7837C29.9534 11.7837 30.5572 11.8434 31.1433 11.9559C30.4968 12.8892 29.8469 13.9262 29.2146 15.0363C28.037 14.1901 26.856 13.4167 25.7112 12.7286C25.7697 12.6276 25.8289 12.5261 25.8897 12.4249C26.9605 12.0116 28.1221 11.7837 29.3358 11.7837ZM32.4609 12.3071C33.9002 12.8053 35.1879 13.6375 36.2348 14.7131C35.186 15.6831 34.0936 16.8149 33.0158 18.0583C32.0156 17.1775 30.9796 16.3422 29.9334 15.5626C30.7208 14.37 31.5676 13.2694 32.4609 12.3071ZM37.037 15.6478C38.2968 17.3146 39.0473 19.4027 39.0473 21.6682C39.0473 22.5857 38.9236 23.4745 38.6931 24.3182C37.3102 22.2969 35.5557 20.3722 33.6369 18.6158C34.7294 17.4967 35.8723 16.4895 37.037 15.6478ZM38.5627 24.7552C38.4832 25.0031 38.3939 25.2475 38.2951 25.4865C36.402 23.6915 34.1162 22.0756 31.7398 20.7298C32.2365 20.1289 32.75 19.5482 33.2759 18.9915C35.2635 20.7966 37.0622 22.7893 38.5627 24.7552ZM38.166 25.7852C38.0756 25.9859 37.979 26.1836 37.8755 26.3775C35.5644 24.9238 32.8323 23.7567 30.022 22.9652C30.4769 22.3277 30.9519 21.7012 31.4433 21.0921C33.9849 22.427 36.3246 24.0647 38.166 25.7852ZM37.7419 26.6182C36.0619 29.5681 32.9263 31.5521 29.3358 31.5521C28.0501 31.5521 26.8226 31.2977 25.6993 30.835C26.6139 28.4544 28.0029 25.8763 29.688 23.4405C32.3971 24.1621 35.1503 25.2602 37.7419 26.6182ZM25.3659 30.6907C24.995 30.5217 24.6366 30.3291 24.2918 30.1157C24.6302 27.8161 25.3232 25.2616 26.2931 22.7359C27.2044 22.8678 28.1321 23.0514 29.0667 23.2812C27.4832 25.7061 26.156 28.2572 25.3659 30.6907ZM23.9583 29.8988C23.4376 29.5455 22.9524 29.1431 22.509 28.6967C22.5438 26.5994 22.6155 24.5191 22.8318 22.4897C23.76 22.4803 24.7194 22.5385 25.6999 22.657C24.8216 25.1141 24.1871 27.6015 23.9583 29.8988ZM22.114 28.2752C20.8035 26.7917 19.9275 24.9031 19.6902 22.8164C20.5341 22.6377 21.4228 22.5343 22.346 22.5008C22.1944 24.3692 22.123 26.2903 22.114 28.2752ZM19.6286 21.9498C19.6259 21.8557 19.6248 21.7625 19.6248 21.6682C19.6248 20.3265 19.8877 19.047 20.3637 17.8801C21.1823 17.8955 22.0228 17.975 22.876 18.1109C22.6775 19.3207 22.5228 20.5504 22.4065 21.8037C21.4447 21.7914 20.5134 21.8391 19.6286 21.9498ZM20.9401 16.6993C21.674 15.4179 22.6824 14.3197 23.8834 13.4884C23.553 14.6827 23.2768 15.8934 23.0485 17.1241C22.3068 16.9354 21.6002 16.7927 20.9401 16.6993ZM25.254 13.573C26.494 14.1207 27.7174 14.802 28.9076 15.5825C28.3769 16.543 27.8621 17.5529 27.3766 18.5928C26.1425 18.0796 24.9344 17.6535 23.7934 17.3268C24.1619 16.0367 24.6381 14.7824 25.254 13.573ZM29.6124 16.0589C30.6668 16.7924 31.6916 17.5997 32.6744 18.4563C32.1489 19.0764 31.6276 19.7213 31.1197 20.3853C30.0887 19.8252 29.0462 19.3161 28.0161 18.8651C28.5118 17.8955 29.0454 16.9542 29.6124 16.0589ZM23.5539 18.2305C23.2664 19.4013 23.0596 20.599 22.9095 21.8155C23.8865 21.8481 24.8916 21.9401 25.908 22.0874C26.2721 21.1115 26.6721 20.1438 27.0987 19.1974C25.9164 18.7859 24.7259 18.4571 23.5539 18.2305ZM29.3896 22.7934C29.8505 22.1073 30.3312 21.432 30.8239 20.7752C29.8158 20.2726 28.7799 19.8178 27.7353 19.4267C27.2926 20.3284 26.8832 21.2511 26.511 22.1803C27.4675 22.3376 28.4317 22.5436 29.3896 22.7934Z" fill="white" stroke="white" stroke-width="0.25" stroke-miterlimit="22.9256" stroke-linecap="round" stroke-linejoin="round"/>
<path d="M1.23535 44.6862H4.16841V50.5773H4.2266C4.36926 50.3142 4.51811 50.0634 4.67363 49.8262C4.82876 49.5892 4.9775 49.3517 5.12014 49.1147L8.09195 44.6862H11.7246L7.39284 50.3604L11.9575 58.0111H8.49982L5.29511 52.258L4.16841 53.662V58.0111H1.23535V44.6862ZM20.9896 55.6587C20.9896 56.1196 20.9993 56.5606 21.0188 56.9831C21.038 57.4051 21.0738 57.7478 21.1259 58.0111H18.4644L18.2898 57.0424H18.2315C17.9205 57.4245 17.5323 57.7179 17.066 57.9219C16.5997 58.1262 16.0816 58.2287 15.5123 58.2287C15.0331 58.2287 14.6025 58.1461 14.2203 57.9812C13.8382 57.8168 13.518 57.5959 13.2588 57.319C13.0002 57.0424 12.7991 56.726 12.6568 56.3703C12.5142 56.0141 12.4429 55.6455 12.4429 55.2633C12.4429 54.6306 12.5757 54.0835 12.8412 53.6221C13.1064 53.1605 13.4824 52.7752 13.9677 52.4657C14.4532 52.1557 15.0393 51.9286 15.7262 51.7832C16.4119 51.6386 17.176 51.5665 18.0178 51.5665V51.4279C18.0178 51.2959 17.995 51.1577 17.9496 51.0125C17.9047 50.8674 17.8205 50.7325 17.6971 50.6074C17.5742 50.4819 17.3997 50.3798 17.173 50.3007C16.9461 50.222 16.6515 50.1822 16.2889 50.1822C15.7968 50.1822 15.3144 50.2546 14.8421 50.3995C14.3696 50.5448 13.9775 50.7161 13.6669 50.9132L13.123 48.9764C13.4598 48.792 13.9421 48.6038 14.5699 48.4131C15.1984 48.2219 15.9461 48.1262 16.8136 48.1262C17.603 48.1262 18.2672 48.2381 18.8044 48.4624C19.3418 48.686 19.7724 48.986 20.0963 49.3618C20.42 49.7375 20.6497 50.1784 20.7855 50.6859C20.9216 51.194 20.9896 51.731 20.9896 52.2975V55.6587ZM18.1149 53.4438C17.7264 53.4438 17.3638 53.4676 17.0275 53.5132C16.6907 53.5591 16.3988 53.6419 16.1533 53.7608C15.9072 53.8785 15.7125 54.0372 15.5707 54.235C15.4281 54.4326 15.3567 54.6769 15.3567 54.9664C15.3567 55.3491 15.4669 55.6349 15.6871 55.8268C15.9072 56.0175 16.1855 56.1131 16.5224 56.1131C16.8976 56.1131 17.2214 56.0044 17.4931 55.7866C17.7653 55.5692 17.9533 55.3091 18.0566 55.0064C18.0951 54.8478 18.1149 54.6769 18.1149 54.4919V53.4438ZM22.5631 56.291L25.5542 52.4757C25.826 52.1461 26.0787 51.853 26.3119 51.596C26.5449 51.3389 26.7972 51.0589 27.0694 50.7555V50.7161H22.8931V48.3437H30.663V50.1428L27.8073 53.8003C27.5486 54.1164 27.2925 54.4256 27.04 54.7289C26.7875 55.0318 26.5259 55.3155 26.2535 55.5789V55.6193H30.8183V58.0111H22.5631V56.291ZM35.4991 58.0111H32.5277V44.6862H35.4991V58.0111ZM43.8319 44.4685C44.8423 44.4685 45.7324 44.6469 46.503 45.0024C47.2734 45.3581 47.9209 45.8431 48.4456 46.4557C48.9701 47.0686 49.3682 47.7833 49.6395 48.6007C49.9121 49.418 50.0474 50.2877 50.0474 51.2102C50.0474 52.3046 49.8924 53.2863 49.5816 54.156C49.2708 55.0259 48.8338 55.7607 48.2704 56.3603C47.7072 56.9598 47.0307 57.4213 46.2407 57.7441C45.4512 58.0672 44.5764 58.2287 43.6183 58.2287C42.6472 58.2287 41.7794 58.0532 41.016 57.7045C40.2517 57.3552 39.6078 56.8745 39.0828 56.2615C38.5583 55.6486 38.1573 54.9303 37.8789 54.1062C37.6006 53.2831 37.4611 52.3964 37.4611 51.4476C37.4611 50.4461 37.6135 49.5199 37.9177 48.6701C38.2217 47.8197 38.6497 47.0848 39.1999 46.4657C39.75 45.846 40.4172 45.3581 41.2 45.0024C41.9836 44.6469 42.8612 44.4685 43.8319 44.4685ZM43.7545 46.8611C43.2496 46.8611 42.8024 46.9762 42.4141 47.2069C42.0259 47.4376 41.6957 47.754 41.4237 48.1556C41.1517 48.558 40.9445 49.0357 40.8023 49.5892C40.6598 50.1428 40.5884 50.7423 40.5884 51.3885C40.5884 52.047 40.6631 52.6471 40.812 53.1873C40.9611 53.7272 41.1712 54.1955 41.4431 54.5907C41.7148 54.9864 42.0487 55.2929 42.4429 55.5103C42.8382 55.7279 43.2818 55.8362 43.7737 55.8362C44.2791 55.8362 44.7252 55.7212 45.114 55.4905C45.503 55.2597 45.8296 54.9434 46.0949 54.5413C46.3605 54.1397 46.5643 53.662 46.7069 53.1079C46.8493 52.5547 46.9207 51.9549 46.9207 51.309C46.9207 50.7161 46.8529 50.1492 46.7167 49.6088C46.5804 49.0685 46.3768 48.5943 46.1048 48.1855C45.8335 47.7771 45.4994 47.4539 45.1045 47.2168C44.7094 46.9797 44.2599 46.8611 43.7545 46.8611ZM51.9905 44.8643C52.4692 44.785 53.0495 44.719 53.7287 44.6665C54.4087 44.6136 55.1435 44.587 55.9336 44.587C56.9049 44.587 57.7368 44.6665 58.4292 44.825C59.1222 44.9824 59.7016 45.2529 60.1679 45.6353C60.9708 46.294 61.3721 47.2238 61.3721 48.4229C61.3721 48.8445 61.3045 49.2323 61.1681 49.5892C61.0322 49.9451 60.8541 50.2615 60.6341 50.5384C60.4142 50.8149 60.1679 51.052 59.8966 51.2501C59.6241 51.4476 59.3458 51.599 59.0608 51.7048V51.7632C59.5138 51.9486 59.8767 52.2545 60.1484 52.6833C60.42 53.1116 60.6404 53.6348 60.8093 54.2548C60.9125 54.6369 61.0127 55.0227 61.1098 55.4115C61.2074 55.8005 61.3045 56.1655 61.4016 56.5086C61.4986 56.8512 61.5859 57.1545 61.6633 57.4183C61.7413 57.6816 61.8126 57.8791 61.8771 58.0111H58.8465C58.6396 57.616 58.3358 56.5806 57.9341 54.907C57.8436 54.4989 57.7398 54.156 57.6232 53.8785C57.507 53.6025 57.3644 53.385 57.1962 53.2268C57.0277 53.0681 56.83 52.953 56.6035 52.881C56.377 52.8084 56.1149 52.7723 55.8173 52.7723H54.9231V58.0111H51.9905V44.8643ZM54.9231 50.5974H56.089C56.8268 50.5974 57.4032 50.426 57.8174 50.0829C58.2316 49.7406 58.4391 49.2729 58.4391 48.6795C58.4391 48.0603 58.2485 47.599 57.8663 47.2958C57.4847 46.993 56.9498 46.8343 56.2635 46.8216C55.9011 46.8216 55.6129 46.8313 55.3991 46.851C55.1858 46.8709 55.0269 46.8936 54.9231 46.9203V50.5974Z" fill="white" stroke="white" stroke-width="0.25" stroke-miterlimit="22.9256" stroke-linecap="round" stroke-linejoin="round"/>
<path d="M1.56665 60.5503H2.15075V61.7244H2.16311C2.19113 61.672 2.22092 61.6224 2.25147 61.5749C2.28269 61.5273 2.3122 61.4805 2.34074 61.4324L2.93305 60.5503H3.65715L2.79357 61.6813L3.70338 63.2058H3.01437L2.37519 62.0593L2.15075 62.339V63.2058H1.56665V60.5503ZM4.55096 62.5245L4.36512 63.2058H3.7536L4.55096 60.5503H5.32532L6.13425 63.2058H5.49937L5.29817 62.5245H4.55096ZM5.21258 62.0746L5.05022 61.5119C5.02686 61.4324 5.00477 61.3477 4.98241 61.2556C4.9606 61.1638 4.93926 61.0786 4.91891 60.9996H4.91085C4.89038 61.0786 4.87019 61.1641 4.85103 61.2576C4.83131 61.3509 4.8114 61.4356 4.79104 61.5119L4.63642 62.0746H5.21258ZM6.31578 62.8829L7.55822 61.0627V61.0468H6.43202V60.5503H8.32527V60.8973L7.10945 62.6935V62.7092H8.34443V63.2058H6.31578V62.8829ZM9.32354 62.5245L9.13747 63.2058H8.52595L9.32354 60.5503H10.0978L10.9064 63.2058H10.2719L10.0706 62.5245H9.32354ZM9.98556 62.0746L9.82285 61.5119C9.79973 61.4324 9.77701 61.3477 9.75528 61.2556C9.73347 61.1638 9.71186 61.0786 9.69103 60.9996H9.68332C9.66262 61.0786 9.64307 61.1641 9.6235 61.2576C9.60445 61.3509 9.58398 61.4356 9.56367 61.5119L9.4089 62.0746H9.98556ZM11.2552 60.5503H11.8395V61.7244H11.851C11.8795 61.672 11.909 61.6224 11.94 61.5749C11.9713 61.5273 12.0007 61.4805 12.0291 61.4324L12.6214 60.5503H13.3452L12.4821 61.6813L13.3916 63.2058H12.7024L12.0638 62.0593L11.8395 62.339V63.2058H11.2552V60.5503ZM14.2238 60.5503V61.5708H15.1956V60.5503H15.7839V63.2058H15.1956V62.0947H14.2238V63.2058H13.6316V60.5503H14.2238ZM17.6724 63.2058H17.0801V60.5503H17.6724V63.2058ZM18.1837 63.2058V60.5503H18.8729L19.4144 61.5235C19.4917 61.6655 19.5673 61.8151 19.6408 61.9727C19.7145 62.1306 19.7807 62.2838 19.8401 62.4333H19.8521C19.8312 62.2575 19.8177 62.0787 19.8112 61.8979C19.8049 61.7162 19.8017 61.525 19.8017 61.3228V60.5503H20.3432V63.2058H19.7242L19.1666 62.1813C19.0895 62.0395 19.0108 61.8872 18.9308 61.7244C18.8509 61.5617 18.7784 61.4017 18.7136 61.2434L18.7021 61.248C18.7101 61.4238 18.7157 61.6065 18.7198 61.7954C18.7236 61.9845 18.7254 62.1877 18.7254 62.4062V63.2058H18.1837ZM20.8737 62.5874C20.9538 62.6296 21.0513 62.6672 21.1663 62.7017C21.2806 62.7357 21.4013 62.7528 21.528 62.7528C21.6646 62.7528 21.7681 62.7265 21.8378 62.6741C21.9074 62.6214 21.942 62.5517 21.942 62.4651C21.942 62.3812 21.9087 62.3118 21.8415 62.2583C21.7744 62.2045 21.6619 62.1487 21.5047 62.0906C21.2879 62.015 21.1147 61.9133 20.9841 61.7873C20.8538 61.6614 20.7887 61.5013 20.7887 61.3069C20.7887 61.194 20.8115 61.0888 20.8561 60.9914C20.9012 60.8943 20.9668 60.8096 21.0517 60.7375C21.1369 60.6655 21.2402 60.6089 21.3614 60.5681C21.4829 60.5274 21.621 60.5068 21.7753 60.5068C21.9229 60.5068 22.051 60.5201 22.1607 60.5463C22.2703 60.5731 22.3638 60.6043 22.4413 60.6411L22.3099 61.1256C22.2582 61.0993 22.1867 61.0717 22.0949 61.0432C22.0031 61.0141 21.893 60.9996 21.7638 60.9996C21.6349 60.9996 21.5395 61.0254 21.4775 61.0762C21.4157 61.1275 21.3845 61.1867 21.3845 61.2556C21.3845 61.2979 21.3942 61.3351 21.4139 61.3677C21.4333 61.4009 21.4622 61.4311 21.5008 61.4588C21.5395 61.486 21.5889 61.5136 21.6499 61.5412C21.7105 61.5688 21.7835 61.5984 21.8685 61.6301C22.1006 61.7162 22.2717 61.8233 22.3812 61.9492C22.4913 62.0746 22.5459 62.2331 22.5459 62.422C22.5459 62.532 22.5244 62.6378 22.4824 62.7389C22.4395 62.8399 22.375 62.9282 22.2885 63.0027C22.2021 63.0778 22.0927 63.1377 21.9594 63.1821C21.8267 63.2265 21.6713 63.2491 21.4932 63.2491C21.3436 63.2491 21.2014 63.2321 21.0674 63.198C20.9335 63.1637 20.8286 63.1254 20.7538 63.0837L20.8737 62.5874ZM23.4479 61.0544H22.7471V60.5503H24.7522V61.0544H24.0402V63.2058H23.4479V61.0544ZM25.6581 63.2058H25.0658V60.5503H25.6581V63.2058ZM26.672 61.0544H25.9715V60.5503H27.9766V61.0544H27.2645V63.2058H26.672V61.0544ZM28.8784 60.5503V62.0787C28.8784 62.3101 28.9191 62.4826 29.0003 62.597C29.0815 62.7111 29.1984 62.7687 29.3508 62.7687C29.5053 62.7687 29.6242 62.7125 29.7068 62.6011C29.789 62.4895 29.8305 62.3155 29.8305 62.0787V60.5503H30.4185V62.0395C30.4185 62.4497 30.3229 62.7534 30.1306 62.9518C29.9383 63.1499 29.6722 63.2491 29.3312 63.2491C29.0013 63.2491 28.7442 63.1523 28.5608 62.9577C28.3777 62.7633 28.2858 62.4547 28.2858 62.0317V60.5503H28.8784ZM31.4331 61.0544H30.7326V60.5503H32.7374V61.0544H32.025V63.2058H31.4331V61.0544ZM34.6034 62.0829H33.643V62.7134H34.7154V63.2058H33.0514V60.5503H34.6613V61.0432H33.643V61.5943H34.6034V62.0829ZM37.0496 60.5068C37.251 60.5068 37.4281 60.5428 37.5815 60.6135C37.7354 60.6845 37.8644 60.781 37.9685 60.9031C38.0735 61.0254 38.1528 61.1678 38.207 61.3305C38.2612 61.4933 38.2877 61.6667 38.2877 61.8504C38.2877 62.0685 38.2574 62.2637 38.1956 62.4379C38.1338 62.611 38.046 62.7573 37.9337 62.8766C37.8215 62.9963 37.6866 63.0884 37.5293 63.1526C37.3719 63.2172 37.1978 63.2491 37.0074 63.2491C36.8135 63.2491 36.641 63.2143 36.4882 63.1445C36.336 63.0751 36.208 62.9795 36.1031 62.8572C35.9984 62.7352 35.9189 62.5919 35.8632 62.428C35.808 62.2633 35.7801 62.0871 35.7801 61.8979C35.7801 61.6982 35.81 61.5136 35.8714 61.3446C35.9314 61.175 36.0167 61.0287 36.1262 60.9049C36.2358 60.7817 36.369 60.6845 36.5247 60.6135C36.6812 60.5428 36.856 60.5068 37.0496 60.5068ZM37.034 60.9837C36.9334 60.9837 36.8448 61.0068 36.7673 61.0528C36.6899 61.0989 36.6238 61.162 36.5693 61.2417C36.5155 61.3218 36.4742 61.4171 36.4455 61.5273C36.4171 61.6379 36.4028 61.7573 36.4028 61.8857C36.4028 62.0172 36.4182 62.1368 36.4473 62.2444C36.4773 62.3522 36.5195 62.4455 36.5734 62.5245C36.6278 62.6028 36.6943 62.664 36.7725 62.7076C36.8511 62.7506 36.9402 62.7724 37.0377 62.7724C37.1387 62.7724 37.2275 62.7497 37.3048 62.7034C37.3829 62.6572 37.4475 62.5948 37.5006 62.5146C37.5531 62.4338 37.5941 62.339 37.6223 62.229C37.6507 62.1182 37.665 61.9991 37.665 61.8703C37.665 61.7522 37.6519 61.6392 37.6246 61.5312C37.5971 61.4238 37.5566 61.3292 37.5022 61.248C37.4484 61.1664 37.3816 61.1021 37.3032 61.0544C37.2249 61.0075 37.1343 60.9837 37.034 60.9837ZM38.6756 60.5503H40.27V61.0432H39.2672V61.6497H40.2043V62.1382H39.2672V63.2058H38.6756V60.5503ZM42.6464 60.5068C42.8482 60.5068 43.0251 60.5428 43.1788 60.6135C43.3327 60.6845 43.4614 60.781 43.5658 60.9031C43.6702 61.0254 43.7498 61.1678 43.8041 61.3305C43.8584 61.4933 43.8851 61.6667 43.8851 61.8504C43.8851 62.0685 43.8546 62.2637 43.7925 62.4379C43.7307 62.611 43.6432 62.7573 43.5311 62.8766C43.4189 62.9963 43.284 63.0884 43.1266 63.1526C42.969 63.2172 42.7951 63.2491 42.6037 63.2491C42.4107 63.2491 42.2376 63.2143 42.0854 63.1445C41.9331 63.0751 41.805 62.9795 41.7 62.8572C41.5957 62.7352 41.5157 62.5919 41.46 62.428C41.4053 62.2633 41.3768 62.0871 41.3768 61.8979C41.3768 61.6982 41.4069 61.5136 41.4683 61.3446C41.5287 61.175 41.614 61.0287 41.7236 60.9049C41.8332 60.7817 41.9662 60.6845 42.1218 60.6135C42.2785 60.5428 42.4533 60.5068 42.6464 60.5068ZM42.6308 60.9837C42.5304 60.9837 42.4412 61.0068 42.3646 61.0528C42.2866 61.0989 42.2212 61.162 42.1663 61.2417C42.1123 61.3218 42.0714 61.4171 42.0427 61.5273C42.014 61.6379 42.0002 61.7573 42.0002 61.8857C42.0002 62.0172 42.0149 62.1368 42.0449 62.2444C42.074 62.3522 42.1163 62.4455 42.1706 62.5245C42.2249 62.6028 42.2916 62.664 42.3698 62.7076C42.4486 62.7506 42.5368 62.7724 42.635 62.7724C42.736 62.7724 42.8247 62.7497 42.9022 62.7034C42.9795 62.6572 43.0449 62.5948 43.0979 62.5146C43.1501 62.4338 43.1915 62.339 43.2197 62.229C43.2478 62.1182 43.2621 61.9991 43.2621 61.8703C43.2621 61.7522 43.2488 61.6392 43.2213 61.5312C43.1943 61.4238 43.1534 61.3292 43.0996 61.248C43.0451 61.1664 42.9786 61.1021 42.9 61.0544C42.8218 61.0075 42.7316 60.9837 42.6308 60.9837ZM44.2721 63.2058V60.5503H44.9615L45.5037 61.5235C45.5803 61.6655 45.6559 61.8151 45.7299 61.9727C45.8029 62.1306 45.8697 62.2838 45.9289 62.4333H45.9405C45.92 62.2575 45.9067 62.0787 45.9 61.8979C45.8933 61.7162 45.8906 61.525 45.8906 61.3228V60.5503H46.4317V63.2058H45.8131L45.2553 62.1813C45.1781 62.0395 45.0993 61.8872 45.0194 61.7244C44.9393 61.5617 44.867 61.4017 44.8027 61.2434L44.7911 61.248C44.7992 61.4238 44.8047 61.6065 44.8082 61.7954C44.8123 61.9845 44.8139 62.1877 44.8139 62.4062V63.2058H44.2721ZM48.8598 63.1308C48.8044 63.1599 48.7199 63.1866 48.6037 63.2116C48.4883 63.2369 48.3498 63.2491 48.1895 63.2491C47.965 63.2491 47.7668 63.2152 47.5953 63.1468C47.424 63.0783 47.2814 62.9849 47.1678 62.867C47.0542 62.7488 46.9683 62.6084 46.9105 62.4455C46.852 62.2824 46.8231 62.1067 46.8231 61.9175C46.8231 61.6917 46.8606 61.4907 46.9354 61.3146C47.0103 61.1387 47.1117 60.9908 47.2392 60.8717C47.3669 60.7522 47.5175 60.6613 47.6907 60.5997C47.8626 60.5383 48.0487 60.5068 48.2478 60.5068C48.402 60.5068 48.5355 60.5195 48.6464 60.5445C48.7572 60.5696 48.8388 60.5967 48.8899 60.6252L48.7698 61.1021C48.7109 61.0758 48.6401 61.0528 48.5574 61.0332C48.474 61.0132 48.3801 61.0036 48.2746 61.0036C48.1582 61.0036 48.0495 61.022 47.9477 61.0586C47.8452 61.0957 47.7575 61.1495 47.6826 61.2221C47.6079 61.2948 47.5486 61.3858 47.5059 61.4959C47.464 61.6065 47.4426 61.7344 47.4426 61.882C47.4426 62.1499 47.5158 62.3611 47.6609 62.5163C47.8069 62.6712 48.0122 62.7488 48.2785 62.7488C48.369 62.7488 48.4584 62.7401 48.5471 62.7228C48.637 62.7061 48.7109 62.6856 48.7698 62.6622L48.8598 63.1308ZM50.3957 60.5068C50.5974 60.5068 50.7747 60.5428 50.9284 60.6135C51.0816 60.6845 51.2108 60.781 51.3149 60.9031C51.4195 61.0254 51.4985 61.1678 51.5532 61.3305C51.6071 61.4933 51.6346 61.6667 51.6346 61.8504C51.6346 62.0685 51.6035 62.2637 51.5416 62.4379C51.4793 62.611 51.3929 62.7573 51.2802 62.8766C51.1679 62.9963 51.033 63.0884 50.8759 63.1526C50.7181 63.2172 50.5445 63.2491 50.3535 63.2491C50.1597 63.2491 49.9868 63.2143 49.8347 63.1445C49.6822 63.0751 49.5536 62.9795 49.4494 62.8572C49.3447 62.7352 49.2651 62.5919 49.2093 62.428C49.154 62.2633 49.1265 62.0871 49.1265 61.8979C49.1265 61.6982 49.1568 61.5136 49.2169 61.3446C49.2779 61.175 49.363 61.0287 49.4726 60.9049C49.5825 60.7817 49.7152 60.6845 49.8716 60.6135C50.0274 60.5428 50.2024 60.5068 50.3957 60.5068ZM50.381 60.9837C50.28 60.9837 50.1909 61.0068 50.1133 61.0528C50.0355 61.0989 49.9699 61.162 49.9161 61.2417C49.8617 61.3218 49.8207 61.4171 49.7918 61.5273C49.7637 61.6379 49.7495 61.7573 49.7495 61.8857C49.7495 62.0172 49.7641 62.1368 49.7936 62.2444C49.8244 62.3522 49.8658 62.4455 49.9196 62.5245C49.9735 62.6028 50.0403 62.664 50.1191 62.7076C50.198 62.7506 50.2862 62.7724 50.3841 62.7724C50.4848 62.7724 50.5739 62.7497 50.6513 62.7034C50.7289 62.6572 50.7939 62.5948 50.8469 62.5146C50.8998 62.4338 50.94 62.339 50.9689 62.229C50.9974 62.1182 51.0116 61.9991 51.0116 61.8703C51.0116 61.7522 50.9974 61.6392 50.9706 61.5312C50.9435 61.4238 50.9024 61.3292 50.8487 61.248C50.7947 61.1664 50.7284 61.1021 50.6496 61.0544C50.5703 61.0075 50.4808 60.9837 50.381 60.9837ZM52.0212 60.5503H52.6136V62.7017H53.6512V63.2058H52.0212V60.5503ZM55.1493 60.5068C55.3506 60.5068 55.5274 60.5428 55.6815 60.6135C55.8351 60.6845 55.9639 60.781 56.0686 60.9031C56.1727 61.0254 56.252 61.1678 56.3067 61.3305C56.3607 61.4933 56.3878 61.6667 56.3878 61.8504C56.3878 62.0685 56.3563 62.2637 56.2947 62.4379C56.2329 62.611 56.146 62.7573 56.0337 62.8766C55.9214 62.9963 55.7867 63.0884 55.6294 63.1526C55.4717 63.2172 55.2976 63.2491 55.1066 63.2491C54.9125 63.2491 54.74 63.2143 54.5878 63.1445C54.4359 63.0751 54.3072 62.9795 54.203 62.8572C54.0984 62.7352 54.0182 62.5919 53.9625 62.428C53.9068 62.2633 53.8797 62.0871 53.8797 61.8979C53.8797 61.6982 53.9095 61.5136 53.9704 61.3446C54.0311 61.175 54.1157 61.0287 54.2261 60.9049C54.3357 60.7817 54.468 60.6845 54.6248 60.6135C54.781 60.5428 54.9557 60.5068 55.1493 60.5068ZM55.1332 60.9837C55.0331 60.9837 54.944 61.0068 54.8665 61.0528C54.789 61.0989 54.7236 61.162 54.6688 61.2417C54.6149 61.3218 54.5739 61.4171 54.5454 61.5273C54.5169 61.6379 54.5027 61.7573 54.5027 61.8857C54.5027 62.0172 54.5178 62.1368 54.5473 62.2444C54.5767 62.3522 54.6185 62.4455 54.6732 62.5245C54.7272 62.6028 54.7939 62.664 54.8723 62.7076C54.9507 62.7506 55.0393 62.7724 55.1378 62.7724C55.2384 62.7724 55.327 62.7497 55.4046 62.7034C55.482 62.6572 55.5474 62.5948 55.5996 62.5146C55.6526 62.4338 55.6935 62.339 55.7221 62.229C55.7501 62.1182 55.7648 61.9991 55.7648 61.8703C55.7648 61.7522 55.751 61.6392 55.7238 61.5312C55.697 61.4238 55.6561 61.3292 55.6022 61.248C55.5474 61.1664 55.4816 61.1021 55.4027 61.0544C55.3239 61.0075 55.2344 60.9837 55.1332 60.9837ZM58.9543 63.0837C58.9075 63.0991 58.8528 63.116 58.7892 63.1322C58.7263 63.1499 58.6574 63.1663 58.5808 63.1821C58.5046 63.198 58.4239 63.2102 58.3389 63.2196C58.2534 63.2288 58.1683 63.2333 58.0828 63.2333C57.8427 63.2333 57.6366 63.2035 57.4637 63.1428C57.2905 63.0824 57.144 62.9931 57.023 62.8749C56.9009 62.7592 56.8088 62.6186 56.7459 62.4528C56.6826 62.2879 56.6524 62.1067 56.6546 61.9099C56.6546 61.6891 56.693 61.4927 56.7686 61.3207C56.8452 61.1488 56.949 61.0036 57.0808 60.8849C57.2122 60.7672 57.369 60.6769 57.5505 60.6158C57.7323 60.5537 57.931 60.5227 58.1447 60.5227C58.3152 60.5227 58.4627 60.5368 58.5866 60.564C58.7102 60.5921 58.8046 60.6216 58.8685 60.653L58.7451 61.1334C58.6729 61.1021 58.5892 61.0753 58.4953 61.0528C58.4012 61.0304 58.282 61.0192 58.1377 61.0192C58.0133 61.0192 57.8993 61.0362 57.7946 61.0725C57.6905 61.1079 57.5996 61.1609 57.5221 61.2322C57.4446 61.3029 57.3837 61.3921 57.3399 61.5001C57.2963 61.6075 57.274 61.7338 57.274 61.8781C57.274 62.015 57.2941 62.1368 57.3343 62.2444C57.3743 62.3522 57.4305 62.4434 57.5025 62.5186C57.5751 62.5934 57.6611 62.6505 57.7622 62.6898C57.8628 62.7293 57.9733 62.7488 58.0948 62.7488C58.2369 62.7488 58.3336 62.7357 58.3847 62.7092V62.154H57.9827V61.685H58.9543V63.0837ZM60.0183 63.2058V62.1182L59.194 60.5503H59.8677L60.135 61.1887C60.1759 61.286 60.2116 61.3733 60.2409 61.4505C60.2708 61.5282 60.3024 61.61 60.3363 61.6967H60.3438C60.3723 61.6129 60.4026 61.5307 60.4347 61.4505C60.4672 61.3703 60.5019 61.2833 60.5411 61.1887L60.8043 60.5503H61.4657L60.607 62.0988V63.2058H60.0183ZM17.3556 67.0432L17.1698 67.7244H16.5582L17.3556 65.0691H18.1295L18.9387 67.7244H18.3036L18.1023 67.0432H17.3556ZM18.0171 66.594L17.8549 66.0307C17.8315 65.9516 17.8089 65.8664 17.787 65.7744C17.7652 65.682 17.7437 65.5971 17.7234 65.5183H17.7155C17.6949 65.5971 17.6748 65.6833 17.6556 65.7761C17.636 65.8696 17.6158 65.9543 17.5956 66.0307L17.4405 66.594H18.0171ZM19.2869 67.7244V65.0691H19.9757L20.518 66.0422C20.5954 66.1841 20.6705 66.3338 20.7441 66.4915C20.8176 66.6493 20.8843 66.8025 20.9437 66.9525H20.9552C20.9348 66.7765 20.9209 66.5981 20.9147 66.4167C20.9079 66.2354 20.905 66.0437 20.905 65.8415V65.0691H21.447V67.7244H20.8272L20.2696 66.7005C20.1928 66.5585 20.1138 66.4063 20.0338 66.2431C19.954 66.0803 19.8815 65.9203 19.8172 65.7627L19.8053 65.7667C19.8132 65.9426 19.8191 66.1253 19.8232 66.3142C19.8266 66.5033 19.8291 66.7067 19.8291 66.9247V67.7244H19.2869ZM21.9578 65.1043C22.066 65.0863 22.1888 65.0728 22.3256 65.0637C22.4621 65.0541 22.6058 65.0496 22.7553 65.0496C23.0028 65.0496 23.2113 65.0728 23.38 65.1185C23.5494 65.1642 23.6968 65.2359 23.8231 65.3333C23.9601 65.4359 24.0678 65.5686 24.1465 65.7332C24.2253 65.8972 24.2647 66.0972 24.2647 66.3338C24.2647 66.5885 24.2238 66.8041 24.1426 66.9801C24.0616 67.1554 23.9577 67.2992 23.8313 67.4093C23.6917 67.5276 23.521 67.6142 23.3182 67.6694C23.1156 67.7244 22.8852 67.752 22.6274 67.752C22.4725 67.752 22.3406 67.7484 22.2326 67.7403C22.1242 67.7325 22.0325 67.723 21.9578 67.7127V65.1043ZM22.5501 67.2716C22.5758 67.2766 22.6074 67.2802 22.6448 67.2815C22.6823 67.283 22.7187 67.2833 22.7553 67.2833C22.8893 67.2833 23.0105 67.2648 23.1191 67.2279C23.2273 67.1913 23.32 67.135 23.3974 67.0586C23.4751 66.9829 23.5341 66.8855 23.5755 66.7671C23.6169 66.6493 23.6375 66.5109 23.6375 66.3537C23.6401 66.0776 23.5671 65.8681 23.419 65.725C23.2706 65.5822 23.0701 65.5104 22.8172 65.5104C22.7498 65.5104 22.6952 65.5133 22.6522 65.5183C22.61 65.5236 22.5758 65.5288 22.5501 65.5341V67.2716ZM25.4336 65.1043C25.5288 65.0889 25.6441 65.0759 25.78 65.0654C25.9155 65.0551 26.0618 65.0496 26.219 65.0496C26.4129 65.0496 26.5785 65.0654 26.7166 65.0962C26.8547 65.1285 26.9698 65.1825 27.063 65.258C27.2231 65.3896 27.3031 65.575 27.3031 65.8138C27.3031 65.8976 27.2899 65.9751 27.2627 66.0463C27.2353 66.1165 27.2 66.18 27.156 66.2354C27.1122 66.2906 27.063 66.3378 27.0088 66.3773C26.9549 66.4167 26.8993 66.447 26.8427 66.4678V66.4795C26.9324 66.5164 27.0052 66.5775 27.059 66.6629C27.1134 66.7486 27.1569 66.8526 27.1908 66.9761C27.2113 67.0522 27.2314 67.1286 27.2512 67.2063C27.2704 67.2838 27.2899 67.3567 27.3089 67.4252C27.3281 67.4933 27.3455 67.554 27.3609 67.6067C27.3765 67.6587 27.391 67.6985 27.4038 67.7244H26.7999C26.7585 67.646 26.6978 67.4397 26.6182 67.1061C26.6 67.0246 26.579 66.9561 26.5564 66.9013C26.5326 66.846 26.5041 66.8025 26.4708 66.7712C26.4373 66.7394 26.3979 66.7167 26.3529 66.7018C26.3079 66.6879 26.2556 66.6805 26.1961 66.6805H26.0179V67.7244H25.4336V65.1043ZM26.0179 66.2471H26.2504C26.3973 66.2471 26.5122 66.213 26.5947 66.1449C26.6775 66.0767 26.7183 65.9833 26.7183 65.8649C26.7183 65.7418 26.6804 65.6498 26.6043 65.5891C26.5282 65.5288 26.4217 65.4974 26.285 65.4948C26.213 65.4948 26.1555 65.4967 26.1128 65.5006C26.0704 65.5042 26.0388 65.5093 26.0179 65.5143V66.2471ZM28.3363 67.0432L28.1508 67.7244H27.5393L28.3363 65.0691H29.1109L29.9194 67.7244H29.285L29.0836 67.0432H28.3363ZM28.9984 66.594L28.836 66.0307C28.8128 65.9516 28.7901 65.8664 28.7678 65.7744C28.7466 65.682 28.7251 65.5971 28.7041 65.5183H28.6965C28.6755 65.5971 28.6557 65.6833 28.6364 65.7761C28.617 65.8696 28.5973 65.9543 28.5762 66.0307L28.4219 66.594H28.9984ZM30.2681 65.1043C30.3764 65.0863 30.4991 65.0728 30.6357 65.0637C30.7726 65.0541 30.9161 65.0496 31.0657 65.0496C31.3128 65.0496 31.5215 65.0728 31.6905 65.1185C31.8594 65.1642 32.0074 65.2359 32.1337 65.3333C32.2704 65.4359 32.3782 65.5686 32.4565 65.7332C32.5357 65.8972 32.5749 66.0972 32.5749 66.3338C32.5749 66.5885 32.534 66.8041 32.4531 66.9801C32.3717 67.1554 32.2678 67.2992 32.1417 67.4093C32.0021 67.5276 31.8312 67.6142 31.6284 67.6694C31.4263 67.7244 31.1962 67.752 30.9379 67.752C30.7826 67.752 30.6514 67.7484 30.5429 67.7403C30.4342 67.7325 30.3428 67.723 30.2681 67.7127V65.1043ZM30.8604 67.2716C30.8856 67.2766 30.9178 67.2802 30.9552 67.2815C30.9926 67.283 31.0292 67.2833 31.0657 67.2833C31.1996 67.2833 31.3206 67.2648 31.4293 67.2279C31.5377 67.1913 31.6307 67.135 31.7079 67.0586C31.785 66.9829 31.8451 66.8855 31.8858 66.7671C31.9275 66.6493 31.9482 66.5109 31.9482 66.3537C31.9503 66.0776 31.8773 65.8681 31.7291 65.725C31.5806 65.5822 31.3806 65.5104 31.1274 65.5104C31.06 65.5104 31.0053 65.5133 30.9631 65.5183C30.9204 65.5236 30.8856 65.5288 30.8604 65.5341V67.2716ZM33.5542 67.7244H32.9619V65.0691H33.5542V67.7244ZM35.2147 65.0261C35.4162 65.0261 35.5931 65.0613 35.747 65.1323C35.9007 65.2034 36.0296 65.2999 36.1341 65.4217C36.2385 65.5442 36.3176 65.6864 36.3724 65.8493C36.4263 66.0119 36.4533 66.1854 36.4533 66.369C36.4533 66.5871 36.4223 66.7829 36.3603 66.9561C36.2984 67.1299 36.2115 67.2761 36.0993 67.3956C35.9871 67.515 35.8524 67.6069 35.6949 67.6714C35.5374 67.7357 35.3629 67.7679 35.1721 67.7679C34.9786 67.7679 34.8059 67.7331 34.6536 67.6635C34.5014 67.5938 34.3727 67.4983 34.2683 67.3759C34.164 67.2539 34.0839 67.1106 34.0282 66.9465C33.973 66.7825 33.9448 66.6057 33.9448 66.4167C33.9448 66.2168 33.9752 66.0323 34.0361 65.8632C34.0971 65.6937 34.1822 65.5474 34.2914 65.4241C34.4014 65.3001 34.5345 65.2034 34.6903 65.1323C34.8465 65.0613 35.0216 65.0261 35.2147 65.0261ZM35.199 65.5024C35.0981 65.5024 35.0099 65.5257 34.9324 65.5718C34.8546 65.6175 34.789 65.6805 34.735 65.7608C34.6807 65.8405 34.6393 65.9362 34.6111 66.0463C34.5828 66.1563 34.5684 66.2761 34.5684 66.4049C34.5684 66.5362 34.5832 66.6556 34.6127 66.7634C34.6424 66.871 34.684 66.9643 34.7389 67.0432C34.7928 67.122 34.8594 67.1827 34.9381 67.2263C35.0172 67.2687 35.1051 67.2911 35.2035 67.2911C35.3038 67.2911 35.3931 67.2685 35.4704 67.2221C35.5479 67.1763 35.6131 67.1132 35.6661 67.033C35.7183 66.9529 35.7592 66.8578 35.7879 66.7474C35.8157 66.637 35.8302 66.5179 35.8302 66.389C35.8302 66.2706 35.8165 66.1579 35.7897 66.0504C35.7627 65.9426 35.7218 65.8479 35.6678 65.7667C35.6131 65.6852 35.547 65.6207 35.4678 65.5737C35.3895 65.5265 35.2999 65.5024 35.199 65.5024ZM36.8403 65.0691H37.4327V67.2204H38.4704V67.7244H36.8403V65.0691ZM39.968 65.0261C40.1692 65.0261 40.3467 65.0613 40.5006 65.1323C40.6537 65.2034 40.7829 65.2999 40.8877 65.4217C40.992 65.5442 41.0711 65.6864 41.1251 65.8493C41.1798 66.0119 41.2069 66.1854 41.2069 66.369C41.2069 66.5871 41.1756 66.7829 41.1138 66.9561C41.0521 67.1299 40.9647 67.2761 40.8529 67.3956C40.7398 67.515 40.6059 67.6069 40.4478 67.6714C40.291 67.7357 40.1167 67.7679 39.9257 67.7679C39.7317 67.7679 39.559 67.7331 39.4067 67.6635C39.2541 67.5938 39.1263 67.4983 39.0215 67.3759C38.9175 67.2539 38.837 67.1106 38.7814 66.9465C38.7261 66.7825 38.6983 66.6057 38.6983 66.4167C38.6983 66.2168 38.7289 66.0323 38.7896 65.8632C38.85 65.6937 38.9349 65.5474 39.0445 65.4241C39.1549 65.3001 39.2871 65.2034 39.4437 65.1323C39.5995 65.0613 39.7743 65.0261 39.968 65.0261ZM39.9525 65.5024C39.8521 65.5024 39.7629 65.5257 39.6856 65.5718C39.6081 65.6175 39.5421 65.6805 39.4881 65.7608C39.4341 65.8405 39.3925 65.9362 39.3637 66.0463C39.3359 66.1563 39.322 66.2761 39.322 66.4049C39.322 66.5362 39.3363 66.6556 39.3663 66.7634C39.3958 66.871 39.4375 66.9643 39.4915 67.0432C39.5463 67.122 39.6125 67.1827 39.6913 67.2263C39.7698 67.2687 39.8583 67.2911 39.9561 67.2911C40.0569 67.2911 40.1457 67.2685 40.2236 67.2221C40.3009 67.1763 40.3658 67.1132 40.4187 67.033C40.4719 66.9529 40.5126 66.8578 40.541 66.7474C40.5692 66.637 40.5833 66.5179 40.5833 66.389C40.5833 66.2706 40.5701 66.1579 40.5429 66.0504C40.5153 65.9426 40.4753 65.8479 40.4205 65.7667C40.3666 65.6852 40.3003 65.6207 40.2218 65.5737C40.143 65.5265 40.0536 65.5024 39.9525 65.5024ZM43.7728 67.6025C43.7267 67.6184 43.6719 67.6345 43.6084 67.6519C43.5455 67.6685 43.4754 67.6851 43.3993 67.7008C43.3232 67.7167 43.2431 67.7289 43.1575 67.7384C43.0725 67.7477 42.9874 67.752 42.9022 67.752C42.662 67.752 42.4554 67.7217 42.2828 67.6613C42.1097 67.6012 41.9629 67.5118 41.8412 67.3934C41.72 67.278 41.6278 67.1374 41.5646 66.972C41.5019 66.8064 41.4713 66.6257 41.4739 66.4284C41.4739 66.2078 41.5121 66.0114 41.5878 65.8392C41.6644 65.6674 41.7679 65.5224 41.8991 65.4041C42.0314 65.2856 42.1881 65.1961 42.3698 65.1339C42.5516 65.0728 42.7499 65.0415 42.9639 65.0415C43.1343 65.0415 43.2814 65.0555 43.4057 65.0831C43.5293 65.1107 43.6232 65.1403 43.6876 65.1715L43.5641 65.652C43.4918 65.6207 43.4084 65.5939 43.3145 65.5718C43.2205 65.5491 43.1007 65.5382 42.956 65.5382C42.8326 65.5382 42.7186 65.5559 42.6134 65.5914C42.509 65.6266 42.4179 65.6802 42.3405 65.7507C42.2638 65.8214 42.2028 65.9113 42.159 66.0187C42.1149 66.1266 42.0932 66.2527 42.0932 66.3967C42.0932 66.5336 42.1133 66.6556 42.1532 66.7634C42.1932 66.871 42.2492 66.9624 42.3215 67.0372C42.3936 67.1121 42.4803 67.169 42.5809 67.2086C42.6812 67.248 42.7926 67.2676 42.9138 67.2676C43.0552 67.2676 43.1526 67.2544 43.204 67.2279V66.6729H42.8018V66.2041H43.7728V67.6025ZM44.8375 67.7244V66.637L44.013 65.0691H44.6871L44.9536 65.7072C44.995 65.8048 45.0306 65.8923 45.0602 65.9693C45.0898 66.0468 45.1214 66.1287 45.1549 66.2159H45.1623C45.1907 66.1314 45.2211 66.0495 45.2536 65.9693C45.2854 65.8893 45.321 65.8021 45.3603 65.7072L45.6234 65.0691H46.2848L45.4254 66.6175V67.7244H44.8375Z" fill="white" stroke="white" stroke-width="0.25" stroke-miterlimit="22.9256" stroke-linecap="round" stroke-linejoin="round"/>
</svg>
