<svg width="111" height="121" viewBox="0 0 111 121" fill="none" xmlns="http://www.w3.org/2000/svg">
<path d="M40.4587 20.9864L38.4684 22.3767C21.5735 16.9747 12.0305 31.2142 15.1384 42.6215C18.2458 54.0286 30.7012 64.3704 56.3328 62.9802C20.6295 66.4687 12.8639 48.0721 12.0823 40.1028C11.3665 32.8125 16.7436 12.7286 40.4587 20.9864Z" fill="#A79ECD"/>
<path d="M16.305 25.1748L12.926 30.0664C4.05736 39.02 7.6666 51.7566 12.8323 57.2973C19.9669 64.9512 31.5602 71.0066 57.8924 63.9093C36.0515 71.7736 19.007 67.4196 11.9446 59.6758C6.30803 53.4962 -3.29195 38.5613 16.305 25.1748Z" fill="#A79ECD"/>
<path d="M5.29255 50.2972C4.60818 57.1078 6.32348 61.7834 9.75214 65.462C16.8879 73.1165 32.5843 80.4014 59.6039 63.741C32.9508 82.4225 15.6772 75.7005 8.6147 67.9574C4.27457 63.1984 -0.0346301 55.898 4.21093 45.1599C4.3208 47.0276 4.70872 48.7231 5.29255 50.2972Z" fill="#A79ECD"/>
<path d="M42.374 20.1384L45.2028 19.6106C54.9229 0.65768 74.783 4.49375 81.6511 16.7386C88.5182 28.9822 86.6391 48.3046 63.9265 68.9963C96.8528 41.4768 88.0945 19.3826 82.1288 12.0124C76.6709 5.27111 55.4548 -7.03262 42.374 20.1384Z" fill="#A79ECD"/>
<path d="M66.1689 3.05978L73.0759 4.29273C87.9769 4.25759 95.5277 18.0479 95.7882 27.1126C96.15 39.6361 91.4318 54.6172 63.3865 71.1082C88.2925 59.0929 99.0083 40.8936 98.5125 28.3565C98.1162 18.3514 93.7772 -2.39631 66.1689 3.05978Z" fill="#A79ECD"/>
<path d="M96.3125 14.7961C102.548 19.9388 104.992 25.3343 105.166 31.3532C105.526 43.8767 98.3792 63.3916 61.8071 72.4262C99.7508 65.4043 108.692 45.0171 108.195 32.482C107.891 24.7779 105.447 14.9621 92.952 9.55225C94.4119 11.2167 95.4956 12.9733 96.3125 14.7961Z" fill="#A79ECD"/>
<path d="M51.6868 20.6641C52.775 20.6641 53.8389 20.7688 54.8714 20.966C53.7325 22.6027 52.5874 24.4212 51.4733 26.368C49.3985 24.884 47.3177 23.5277 45.3006 22.3212C45.4038 22.144 45.508 21.9659 45.6151 21.7885C47.5019 21.0637 49.5484 20.6641 51.6868 20.6641ZM57.1931 21.582C59.7289 22.4556 61.9976 23.9149 63.8422 25.8012C61.9943 27.5021 60.0697 29.4869 58.1707 31.6673C56.4084 30.1228 54.583 28.6579 52.7398 27.2908C54.1271 25.1994 55.619 23.2695 57.1931 21.582ZM65.2556 27.4403C67.4753 30.3631 68.7976 34.0249 68.7976 37.9978C68.7976 39.6067 68.5797 41.1654 68.1736 42.6448C65.737 39.1002 62.6458 35.7251 59.265 32.6451C61.1899 30.6825 63.2036 28.9163 65.2556 27.4403ZM67.9437 43.4112C67.8038 43.846 67.6464 44.2744 67.4723 44.6936C64.1369 41.5459 60.1095 38.7121 55.9224 36.3522C56.7976 35.2984 57.7023 34.2801 58.6289 33.3039C62.1308 36.4693 65.3 39.9638 67.9437 43.4112ZM67.2449 45.2174C67.0855 45.5694 66.9153 45.9162 66.733 46.256C62.661 43.7068 57.8473 41.6602 52.8958 40.2722C53.6974 39.1542 54.5343 38.0557 55.4001 36.9874C59.8782 39.3284 64.0004 42.2004 67.2449 45.2174ZM66.4977 46.6782C63.5377 51.8512 58.0129 55.3304 51.6868 55.3304C49.4215 55.3304 47.2588 54.8842 45.2797 54.0729C46.8912 49.8981 49.3384 45.3773 52.3073 41.1058C57.0805 42.3711 61.9314 44.2967 66.4977 46.6782ZM44.6923 53.8198C44.0387 53.5234 43.4073 53.1857 42.7998 52.8114C43.396 48.7789 44.617 44.2993 46.3259 39.87C47.9315 40.1015 49.566 40.4234 51.2128 40.8264C48.4227 45.0787 46.0843 49.5524 44.6923 53.8198ZM42.2122 52.4311C41.2948 51.8117 40.4399 51.106 39.6587 50.3232C39.7199 46.6452 39.8464 42.9972 40.2275 39.4383C41.8629 39.4219 43.5531 39.5239 45.2808 39.7318C43.7333 44.0407 42.6153 48.4025 42.2122 52.4311ZM38.9627 49.584C36.6537 46.9825 35.1104 43.6705 34.6923 40.0114C36.179 39.6978 37.745 39.5166 39.3715 39.4578C39.1044 42.7343 38.9786 46.1033 38.9627 49.584ZM34.5837 38.4915C34.5789 38.3266 34.5769 38.1631 34.5769 37.9978C34.5769 35.645 35.0403 33.4011 35.8789 31.3549C37.3212 31.3819 38.8021 31.5213 40.3054 31.7596C39.9556 33.8812 39.6829 36.0376 39.4781 38.2355C37.7835 38.2139 36.1427 38.2975 34.5837 38.4915ZM36.8944 29.2843C38.1875 27.0371 39.9641 25.1113 42.0803 23.6535C41.4981 25.7478 41.0114 27.871 40.6092 30.0291C39.3025 29.6983 38.0575 29.4481 36.8944 29.2843ZM44.4951 23.8019C46.6798 24.7623 48.8354 25.957 50.9324 27.3258C49.9974 29.0101 49.0903 30.781 48.2349 32.6046C46.0606 31.7047 43.932 30.9575 41.9216 30.3845C42.5709 28.1222 43.4099 25.9226 44.4951 23.8019ZM52.1741 28.1611C54.0319 29.4474 55.8375 30.8631 57.5691 32.3652C56.6433 33.4527 55.7248 34.5836 54.8298 35.7481C53.0134 34.7658 51.1766 33.873 49.3617 33.0822C50.2351 31.3819 51.1751 29.7311 52.1741 28.1611ZM41.4996 31.9694C40.9931 34.0225 40.6288 36.1227 40.3644 38.256C42.0857 38.3133 43.8565 38.4747 45.6473 38.7329C46.2889 37.0216 46.9937 35.3246 47.7452 33.6649C45.6621 32.9432 43.5646 32.3668 41.4996 31.9694ZM51.7817 39.971C52.5937 38.7679 53.4406 37.5836 54.3088 36.4317C52.5326 35.5503 50.7074 34.7528 48.867 34.067C48.0869 35.6482 47.3656 37.2664 46.7099 38.8958C48.3951 39.1717 50.0938 39.533 51.7817 39.971Z" fill="#A79ECD"/>
<path d="M2.17651 78.3628H7.34428V88.6936H7.44682C7.69815 88.232 7.96042 87.7923 8.23444 87.3764C8.50776 86.9607 8.76983 86.5443 9.02114 86.1286L14.2572 78.3628H20.6576L13.0254 88.3131L21.068 101.73H14.9758L9.32942 91.6408L7.34428 94.1029V101.73H2.17651V78.3628ZM36.9815 97.6043C36.9815 98.4127 36.9987 99.186 37.0331 99.9269C37.0669 100.667 37.13 101.268 37.2218 101.73H32.5324L32.2249 100.031H32.1221C31.5741 100.701 30.8903 101.215 30.0686 101.573C29.247 101.931 28.3342 102.111 27.3311 102.111C26.4868 102.111 25.7281 101.966 25.0547 101.677C24.3815 101.389 23.8174 101.001 23.3608 100.516C22.905 100.031 22.5507 99.4759 22.2999 98.8521C22.0488 98.2275 21.9232 97.5812 21.9232 96.911C21.9232 95.8014 22.1572 94.8421 22.6249 94.0329C23.0922 93.2235 23.7547 92.5478 24.6096 92.0051C25.4652 91.4614 26.4977 91.0632 27.708 90.8082C28.9162 90.5546 30.2623 90.4282 31.7456 90.4282V90.1851C31.7456 89.9537 31.7053 89.7113 31.6255 89.4567C31.5462 89.2022 31.398 88.9656 31.1806 88.7463C30.964 88.5261 30.6565 88.3472 30.2571 88.2085C29.8573 88.0704 29.3382 88.0006 28.6994 88.0006C27.8323 88.0006 26.9824 88.1277 26.1503 88.3818C25.3178 88.6365 24.627 88.9368 24.0796 89.2826L23.1213 85.8861C23.7149 85.5627 24.5646 85.2327 25.6706 84.8983C26.778 84.5629 28.0954 84.3952 29.624 84.3952C31.0147 84.3952 32.185 84.5914 33.1316 84.9847C34.0783 85.3769 34.8371 85.903 35.4077 86.562C35.978 87.2208 36.3828 87.9939 36.622 88.8839C36.8618 89.775 36.9815 90.7166 36.9815 91.7101V97.6043ZM31.9167 93.7202C31.2322 93.7202 30.5934 93.7619 30.0007 93.8419C29.4074 93.9225 28.8931 94.0677 28.4604 94.2762C28.0269 94.4825 27.6839 94.7608 27.434 95.1076C27.1829 95.4542 27.0571 95.8827 27.0571 96.3902C27.0571 97.0613 27.2512 97.5626 27.639 97.8991C28.0269 98.2335 28.5172 98.4012 29.1108 98.4012C29.772 98.4012 30.3424 98.2106 30.821 97.8286C31.3007 97.4475 31.632 96.9913 31.8139 96.4604C31.8819 96.1824 31.9167 95.8827 31.9167 95.5581V93.7202ZM39.7539 98.7132L45.024 92.0226C45.5029 91.4446 45.9482 90.9305 46.3591 90.4798C46.7696 90.0291 47.214 89.538 47.6937 89.006V88.9368H40.3355V84.7766H54.0253V87.9315L48.9937 94.3453C48.5379 94.8998 48.0868 95.4419 47.6419 95.9739C47.197 96.505 46.736 97.0026 46.2561 97.4643V97.5352H54.2988V101.73H39.7539V98.7132ZM62.5459 101.73H57.3106V78.3628H62.5459V101.73ZM77.2275 77.981C79.0079 77.981 80.576 78.2938 81.9337 78.9172C83.2912 79.541 84.4321 80.3914 85.3564 81.4658C86.2806 82.5405 86.982 83.7939 87.46 85.2273C87.9403 86.6605 88.1787 88.1856 88.1787 89.8033C88.1787 91.7224 87.9055 93.4441 87.3579 94.9691C86.8103 96.4946 86.0405 97.7832 85.0478 98.8346C84.0555 99.886 82.8635 100.695 81.4716 101.261C80.0807 101.828 78.5393 102.111 76.8512 102.111C75.1403 102.111 73.6113 101.803 72.2663 101.192C70.9197 100.579 69.7851 99.7363 68.8601 98.6614C67.936 97.5866 67.2295 96.3269 66.7389 94.8818C66.2485 93.4385 66.0028 91.8834 66.0028 90.2197C66.0028 88.4634 66.2714 86.8392 66.8072 85.349C67.3429 83.8577 68.097 82.569 69.0664 81.4833C70.0356 80.3966 71.2111 79.541 72.5903 78.9172C73.9711 78.2938 75.5173 77.981 77.2275 77.981ZM77.0913 82.1766C76.2015 82.1766 75.4137 82.3784 74.7296 82.7831C74.0455 83.1876 73.4638 83.7425 72.9845 84.4467C72.5052 85.1524 72.1402 85.9901 71.8897 86.9607C71.6386 87.9315 71.5128 88.9829 71.5128 90.116C71.5128 91.2709 71.6444 92.3231 71.9067 93.2704C72.1694 94.2172 72.5396 95.0385 73.0187 95.7314C73.4975 96.4254 74.0858 96.9628 74.7803 97.3442C75.4768 97.7258 76.2583 97.9157 77.125 97.9157C78.0154 97.9157 78.8016 97.7139 79.4865 97.3094C80.1719 96.9047 80.7473 96.35 81.2148 95.6448C81.6828 94.9406 82.0419 94.1029 82.293 93.1312C82.544 92.1611 82.6698 91.1092 82.6698 89.9766C82.6698 88.9369 82.5503 87.9427 82.3102 86.995C82.0702 86.0475 81.7115 85.2161 81.2322 84.4992C80.7543 83.7829 80.1655 83.2161 79.4697 82.8004C78.7737 82.3847 77.9817 82.1766 77.0913 82.1766ZM91.6022 78.675C92.4456 78.536 93.4681 78.4202 94.6648 78.3282C95.8629 78.2355 97.1575 78.1888 98.5495 78.1888C100.261 78.1888 101.727 78.3282 102.947 78.606C104.168 78.8822 105.188 79.3565 106.01 80.0271C107.425 81.1823 108.132 82.8127 108.132 84.9155C108.132 85.6547 108.013 86.3349 107.772 86.9607C107.533 87.5849 107.219 88.1398 106.831 88.6253C106.444 89.1101 106.01 89.5259 105.532 89.8733C105.052 90.2197 104.562 90.4852 104.059 90.6706V90.773C104.858 91.0982 105.497 91.6347 105.976 92.3866C106.454 93.1377 106.843 94.0551 107.14 95.1424C107.322 95.8125 107.499 96.489 107.67 97.1709C107.842 97.853 108.013 98.493 108.184 99.0948C108.355 99.6955 108.508 100.227 108.645 100.69C108.782 101.152 108.908 101.498 109.021 101.73H103.682C103.317 101.037 102.782 99.221 102.074 96.2861C101.915 95.5704 101.732 94.9691 101.527 94.4825C101.322 93.9985 101.071 93.6172 100.774 93.3397C100.477 93.0614 100.129 92.8596 99.7298 92.7332C99.3309 92.606 98.869 92.5426 98.3447 92.5426H96.7692V101.73H91.6022V78.675ZM96.7692 88.7288H98.8233C100.123 88.7288 101.139 88.4282 101.869 87.8265C102.598 87.2262 102.964 86.406 102.964 85.3654C102.964 84.2796 102.628 83.4707 101.955 82.9389C101.283 82.408 100.34 82.1297 99.1309 82.1075C98.4923 82.1075 97.9845 82.1243 97.6078 82.1589C97.2321 82.1939 96.952 82.2337 96.7692 82.2806V88.7288Z" fill="#A79ECD"/>
<path d="M2.7605 106.182H3.78962V108.241H3.81141C3.86077 108.149 3.91327 108.063 3.96709 107.979C4.02209 107.896 4.07409 107.814 4.12436 107.729L5.16796 106.182H6.44376L4.92221 108.166L6.52521 110.839H5.31123L4.18506 108.829L3.78962 109.319V110.839H2.7605V106.182ZM8.01857 109.644L7.69114 110.839H6.6137L8.01857 106.182H9.38291L10.8082 110.839H9.68958L9.33507 109.644H8.01857ZM9.18429 108.855L8.89821 107.869C8.85705 107.729 8.81814 107.581 8.77875 107.419C8.74031 107.258 8.70272 107.109 8.66685 106.97H8.65266C8.6166 107.109 8.58101 107.259 8.54726 107.423C8.51252 107.586 8.47743 107.735 8.44157 107.869L8.16914 108.855H9.18429ZM11.128 110.273L13.3171 107.081V107.053H11.3328V106.182H14.6685V106.791L12.5264 109.941V109.968H14.7023V110.839H11.128V110.273ZM16.4274 109.644L16.0996 110.839H15.0221L16.4274 106.182H17.7916L19.2162 110.839H18.0982L17.7437 109.644H16.4274ZM17.5938 108.855L17.3071 107.869C17.2664 107.729 17.2264 107.581 17.1881 107.419C17.1496 107.258 17.1116 107.109 17.0749 106.97H17.0613C17.0248 107.109 16.9904 107.259 16.9559 107.423C16.9223 107.586 16.8863 107.735 16.8505 107.869L16.5778 108.855H17.5938ZM19.8307 106.182H20.8603V108.241H20.8805C20.9308 108.149 20.9827 108.063 21.0374 107.979C21.0925 107.896 21.1443 107.814 21.1944 107.729L22.2379 106.182H23.5131L21.9924 108.166L23.595 110.839H22.3807L21.2556 108.829L20.8603 109.319V110.839H19.8307V106.182ZM25.0613 106.182V107.972H26.7735V106.182H27.8099V110.839H26.7735V108.891H25.0613V110.839H24.0179V106.182H25.0613ZM31.1373 110.839H30.0937V106.182H31.1373V110.839ZM32.0381 110.839V106.182H33.2524L34.2066 107.889C34.3428 108.138 34.476 108.4 34.6055 108.677C34.7352 108.954 34.8519 109.222 34.9566 109.484H34.9777C34.9409 109.176 34.9172 108.863 34.9057 108.546C34.8946 108.227 34.8889 107.892 34.8889 107.537V106.182H35.8431V110.839H34.7524L33.77 109.043C33.6342 108.794 33.4955 108.527 33.3545 108.241C33.2137 107.956 33.0859 107.676 32.9719 107.398L32.9516 107.406C32.9655 107.714 32.9756 108.035 32.9827 108.366C32.9895 108.698 32.9925 109.054 32.9925 109.437V110.839H32.0381ZM36.7776 109.755C36.9189 109.829 37.0906 109.895 37.2932 109.955C37.4946 110.015 37.7072 110.045 37.9305 110.045C38.1712 110.045 38.3536 109.999 38.4764 109.907C38.5989 109.814 38.6598 109.692 38.6598 109.54C38.6598 109.393 38.6013 109.271 38.4829 109.178C38.3647 109.083 38.1664 108.985 37.8894 108.884C37.5074 108.751 37.2023 108.573 36.9722 108.352C36.7426 108.131 36.6279 107.85 36.6279 107.509C36.6279 107.311 36.6682 107.127 36.7467 106.956C36.8262 106.786 36.9417 106.637 37.0913 106.511C37.2414 106.385 37.4234 106.285 37.6369 106.214C37.8511 106.142 38.0944 106.106 38.3662 106.106C38.6263 106.106 38.852 106.13 39.0453 106.175C39.2383 106.222 39.4031 106.277 39.5396 106.342L39.3082 107.191C39.217 107.145 39.091 107.097 38.9293 107.047C38.7676 106.996 38.5737 106.97 38.346 106.97C38.1188 106.97 37.9507 107.016 37.8415 107.105C37.7327 107.195 37.6776 107.298 37.6776 107.419C37.6776 107.493 37.6948 107.559 37.7294 107.616C37.7636 107.674 37.8145 107.727 37.8826 107.776C37.9507 107.823 38.0378 107.872 38.1453 107.92C38.252 107.969 38.3806 108.02 38.5303 108.076C38.9393 108.227 39.2407 108.415 39.4338 108.636C39.6277 108.855 39.7239 109.133 39.7239 109.465C39.7239 109.658 39.686 109.843 39.612 110.02C39.5365 110.198 39.4229 110.352 39.2703 110.483C39.1182 110.615 38.9254 110.72 38.6905 110.798C38.4568 110.876 38.183 110.915 37.8691 110.915C37.6056 110.915 37.355 110.885 37.1189 110.825C36.883 110.765 36.6982 110.698 36.5665 110.625L36.7776 109.755ZM41.3132 107.066H40.0785V106.182H43.6113V107.066H42.3568V110.839H41.3132V107.066ZM45.2073 110.839H44.1637V106.182H45.2073V110.839ZM46.9938 107.066H45.7595V106.182H49.2923V107.066H48.0376V110.839H46.9938V107.066ZM50.8812 106.182V108.863C50.8812 109.268 50.953 109.571 51.096 109.772C51.239 109.972 51.4451 110.073 51.7134 110.073C51.9857 110.073 52.1953 109.974 52.3407 109.779C52.4857 109.583 52.5588 109.278 52.5588 108.863V106.182H53.5948V108.794C53.5948 109.513 53.4263 110.046 53.0875 110.394C52.7486 110.741 52.2798 110.915 51.6791 110.915C51.0977 110.915 50.6448 110.745 50.3216 110.404C49.999 110.063 49.8371 109.522 49.8371 108.78V106.182H50.8812ZM55.3823 107.066H54.148V106.182H57.6805V107.066H56.4253V110.839H55.3823V107.066ZM60.968 108.87H59.276V109.976H61.1654V110.839H58.2337V106.182H61.0701V107.047H59.276V108.013H60.968V108.87ZM65.2781 106.106C65.6328 106.106 65.945 106.169 66.2153 106.293C66.4865 106.418 66.7137 106.587 66.8972 106.801C67.0822 107.016 67.2219 107.265 67.3172 107.551C67.4128 107.836 67.4596 108.14 67.4596 108.462C67.4596 108.845 67.406 109.187 67.2972 109.492C67.1884 109.796 67.0336 110.053 66.8358 110.262C66.6382 110.472 66.4005 110.633 66.1232 110.746C65.8459 110.859 65.5393 110.915 65.2036 110.915C64.8622 110.915 64.5581 110.854 64.2889 110.732C64.0207 110.61 63.7953 110.442 63.6105 110.228C63.4259 110.014 63.286 109.763 63.1878 109.475C63.0905 109.186 63.0413 108.877 63.0413 108.546C63.0413 108.195 63.094 107.872 63.2022 107.575C63.3079 107.278 63.4581 107.021 63.6512 106.804C63.8442 106.588 64.0788 106.418 64.3533 106.293C64.6291 106.169 64.937 106.106 65.2781 106.106ZM65.2507 106.942C65.0733 106.942 64.9172 106.983 64.7808 107.064C64.6443 107.144 64.5279 107.255 64.4319 107.395C64.337 107.535 64.2643 107.703 64.2138 107.896C64.1637 108.09 64.1385 108.299 64.1385 108.524C64.1385 108.755 64.1657 108.965 64.2168 109.153C64.2697 109.342 64.3442 109.506 64.439 109.644C64.5348 109.782 64.6521 109.889 64.7899 109.965C64.9283 110.041 65.0852 110.079 65.2572 110.079C65.435 110.079 65.5915 110.039 65.7277 109.958C65.8653 109.877 65.9791 109.768 66.0727 109.627C66.1652 109.485 66.2375 109.319 66.2871 109.126C66.3372 108.932 66.3624 108.723 66.3624 108.497C66.3624 108.29 66.3393 108.092 66.2912 107.903C66.2427 107.714 66.1713 107.548 66.0755 107.406C65.9806 107.263 65.8631 107.15 65.7249 107.066C65.5869 106.984 65.4274 106.942 65.2507 106.942ZM68.143 106.182H70.9521V107.047H69.1853V108.11H70.8363V108.967H69.1853V110.839H68.143V106.182ZM75.139 106.106C75.4947 106.106 75.8063 106.169 76.0771 106.293C76.3483 106.418 76.5751 106.587 76.759 106.801C76.9429 107.016 77.0833 107.265 77.1788 107.551C77.2746 107.836 77.3216 108.14 77.3216 108.462C77.3216 108.845 77.2678 109.187 77.1583 109.492C77.0495 109.796 76.8954 110.053 76.6978 110.262C76.5002 110.472 76.2625 110.633 75.9852 110.746C75.7075 110.859 75.4011 110.915 75.0639 110.915C74.7237 110.915 74.4188 110.854 74.1507 110.732C73.8823 110.61 73.6566 110.442 73.4716 110.228C73.2879 110.014 73.1469 109.763 73.0487 109.475C72.9523 109.186 72.9023 108.877 72.9023 108.546C72.9023 108.195 72.9551 107.872 73.0633 107.575C73.1697 107.278 73.3201 107.021 73.5132 106.804C73.7062 106.588 73.9407 106.418 74.2149 106.293C74.4909 106.169 74.7988 106.106 75.139 106.106ZM75.1116 106.942C74.9346 106.942 74.7775 106.983 74.6426 107.064C74.5052 107.144 74.3899 107.255 74.2932 107.395C74.1981 107.535 74.1261 107.703 74.0754 107.896C74.0249 108.09 74.0005 108.299 74.0005 108.524C74.0005 108.755 74.0264 108.965 74.0793 109.153C74.1307 109.342 74.2051 109.506 74.3009 109.644C74.3964 109.782 74.5139 109.889 74.6517 109.965C74.7906 110.041 74.946 110.079 75.119 110.079C75.297 110.079 75.4533 110.039 75.5898 109.958C75.726 109.877 75.8411 109.768 75.9345 109.627C76.0266 109.485 76.0995 109.319 76.1491 109.126C76.1987 108.932 76.224 108.723 76.224 108.497C76.224 108.29 76.2005 108.092 76.1519 107.903C76.1045 107.714 76.0325 107.548 75.9376 107.406C75.8416 107.263 75.7245 107.15 75.5858 107.066C75.4481 106.984 75.2892 106.942 75.1116 106.942ZM78.0035 110.839V106.182H79.2182L80.1734 107.889C80.3083 108.138 80.4416 108.4 80.5719 108.677C80.7006 108.954 80.8183 109.222 80.9226 109.484H80.943C80.9069 109.176 80.8834 108.863 80.8716 108.546C80.8599 108.227 80.8551 107.892 80.8551 107.537V106.182H81.8084V110.839H80.7186L79.7357 109.043C79.5997 108.794 79.4608 108.527 79.32 108.241C79.179 107.956 79.0517 107.676 78.9383 107.398L78.9178 107.406C78.9322 107.714 78.9417 108.035 78.9481 108.366C78.9552 108.698 78.9581 109.054 78.9581 109.437V110.839H78.0035ZM86.0864 110.708C85.9889 110.759 85.8401 110.806 85.6353 110.849C85.432 110.894 85.188 110.915 84.9055 110.915C84.51 110.915 84.1607 110.856 83.8586 110.736C83.5567 110.616 83.3056 110.452 83.1053 110.245C82.9053 110.038 82.7538 109.792 82.652 109.506C82.549 109.22 82.4981 108.912 82.4981 108.58C82.4981 108.184 82.564 107.832 82.6959 107.523C82.8278 107.214 83.0065 106.955 83.2311 106.746C83.4562 106.536 83.7215 106.377 84.0266 106.269C84.3296 106.161 84.6574 106.106 85.0082 106.106C85.2798 106.106 85.5151 106.128 85.7106 106.172C85.9058 106.216 86.0494 106.264 86.1395 106.314L85.928 107.15C85.8242 107.104 85.6995 107.064 85.5536 107.029C85.4067 106.994 85.2413 106.977 85.0555 106.977C84.8504 106.977 84.6589 107.01 84.4796 107.074C84.2989 107.139 84.1444 107.233 84.0125 107.36C83.8808 107.488 83.7763 107.648 83.701 107.841C83.6273 108.035 83.5896 108.259 83.5896 108.518C83.5896 108.988 83.7184 109.358 83.9742 109.63C84.2314 109.902 84.5932 110.038 85.0624 110.038C85.2217 110.038 85.3793 110.022 85.5356 109.992C85.694 109.963 85.8242 109.927 85.928 109.886L86.0864 110.708ZM88.7927 106.106C89.1481 106.106 89.4604 106.169 89.7312 106.293C90.001 106.418 90.2287 106.587 90.4122 106.801C90.5965 107.016 90.7356 107.265 90.832 107.551C90.9269 107.836 90.9755 108.14 90.9755 108.462C90.9755 108.845 90.9206 109.187 90.8116 109.492C90.7019 109.796 90.5495 110.053 90.351 110.262C90.1532 110.472 89.9155 110.633 89.6387 110.746C89.3607 110.859 89.0547 110.915 88.7182 110.915C88.3768 110.915 88.0723 110.854 87.8041 110.732C87.5355 110.61 87.309 110.442 87.1253 110.228C86.9409 110.014 86.8006 109.763 86.7024 109.475C86.6049 109.186 86.5564 108.877 86.5564 108.546C86.5564 108.195 86.6099 107.872 86.7157 107.575C86.8232 107.278 86.9731 107.021 87.1662 106.804C87.3599 106.588 87.5937 106.418 87.8692 106.293C88.1436 106.169 88.4521 106.106 88.7927 106.106ZM88.7668 106.942C88.5887 106.942 88.4318 106.983 88.2951 107.064C88.158 107.144 88.0424 107.255 87.9475 107.395C87.8518 107.535 87.7795 107.703 87.7286 107.896C87.6792 108.09 87.6542 108.299 87.6542 108.524C87.6542 108.755 87.6798 108.965 87.7319 109.153C87.7861 109.342 87.859 109.506 87.9539 109.644C88.0488 109.782 88.1665 109.889 88.3054 109.965C88.4442 110.041 88.5996 110.079 88.7722 110.079C88.9496 110.079 89.1065 110.039 89.243 109.958C89.3797 109.877 89.4941 109.768 89.5875 109.627C89.6809 109.485 89.7516 109.319 89.8026 109.126C89.8528 108.932 89.8779 108.723 89.8779 108.497C89.8779 108.29 89.8528 108.092 89.8056 107.903C89.7577 107.714 89.6855 107.548 89.5908 107.406C89.4957 107.263 89.3788 107.15 89.2399 107.066C89.1002 106.984 88.9426 106.942 88.7668 106.942ZM91.6567 106.182H92.7003V109.955H94.5285V110.839H91.6567V106.182ZM97.1679 106.106C97.5227 106.106 97.8342 106.169 98.1058 106.293C98.3763 106.418 98.6033 106.587 98.7877 106.801C98.9712 107.016 99.1109 107.265 99.2073 107.551C99.3024 107.836 99.3501 108.14 99.3501 108.462C99.3501 108.845 99.2946 109.187 99.1862 109.492C99.0771 109.796 98.9241 110.053 98.7263 110.262C98.5285 110.472 98.291 110.633 98.0139 110.746C97.736 110.859 97.4293 110.915 97.0929 110.915C96.7507 110.915 96.4469 110.854 96.1787 110.732C95.911 110.61 95.6842 110.442 95.5008 110.228C95.3164 110.014 95.1752 109.763 95.077 109.475C94.9789 109.186 94.9312 108.877 94.9312 108.546C94.9312 108.195 94.9836 107.872 95.0909 107.575C95.1978 107.278 95.3469 107.021 95.5415 106.804C95.7345 106.588 95.9676 106.418 96.2438 106.293C96.5191 106.169 96.8269 106.106 97.1679 106.106ZM97.1397 106.942C96.9634 106.942 96.8062 106.983 96.6698 107.064C96.5333 107.144 96.4179 107.255 96.3215 107.395C96.2264 107.535 96.1542 107.703 96.1041 107.896C96.0538 108.09 96.0288 108.299 96.0288 108.524C96.0288 108.755 96.0553 108.965 96.1074 109.153C96.1592 109.342 96.2327 109.506 96.3291 109.644C96.4243 109.782 96.5418 109.889 96.68 109.965C96.8182 110.041 96.9742 110.079 97.1477 110.079C97.3251 110.079 97.4811 110.039 97.6178 109.958C97.7543 109.877 97.8694 109.768 97.9615 109.627C98.0549 109.485 98.1269 109.319 98.1772 109.126C98.2266 108.932 98.2525 108.723 98.2525 108.497C98.2525 108.29 98.2281 108.092 98.1802 107.903C98.133 107.714 98.061 107.548 97.9661 107.406C97.8694 107.263 97.7534 107.15 97.6146 107.066C97.4757 106.984 97.3179 106.942 97.1397 106.942ZM103.872 110.625C103.79 110.652 103.693 110.682 103.581 110.71C103.47 110.741 103.349 110.77 103.214 110.798C103.08 110.825 102.938 110.847 102.788 110.863C102.637 110.879 102.487 110.887 102.337 110.887C101.914 110.887 101.55 110.835 101.246 110.729C100.941 110.623 100.683 110.466 100.469 110.259C100.254 110.056 100.092 109.809 99.981 109.519C99.8696 109.23 99.8163 108.912 99.8202 108.567C99.8202 108.179 99.8879 107.835 100.021 107.533C100.156 107.232 100.339 106.977 100.571 106.769C100.803 106.563 101.079 106.404 101.399 106.297C101.719 106.188 102.069 106.134 102.446 106.134C102.746 106.134 103.006 106.159 103.224 106.206C103.442 106.256 103.608 106.307 103.721 106.362L103.503 107.205C103.376 107.15 103.229 107.103 103.063 107.064C102.898 107.024 102.687 107.005 102.433 107.005C102.214 107.005 102.013 107.034 101.829 107.098C101.645 107.16 101.485 107.253 101.349 107.378C101.212 107.502 101.105 107.659 101.028 107.848C100.951 108.036 100.911 108.258 100.911 108.511C100.911 108.751 100.947 108.965 101.018 109.153C101.088 109.342 101.187 109.502 101.314 109.634C101.442 109.765 101.594 109.865 101.772 109.934C101.949 110.003 102.144 110.038 102.358 110.038C102.608 110.038 102.778 110.015 102.869 109.968V108.995H102.16V108.172H103.872V110.625ZM105.747 110.839V108.932L104.294 106.182H105.481L105.952 107.302C106.024 107.473 106.087 107.626 106.139 107.761C106.192 107.897 106.247 108.041 106.307 108.193H106.32C106.371 108.046 106.424 107.902 106.48 107.761C106.538 107.62 106.599 107.468 106.668 107.302L107.132 106.182H108.297L106.784 108.898V110.839H105.747ZM30.579 117.569L30.2517 118.763H29.1741L30.579 114.107H31.9426L33.3684 118.763H32.2495L31.8947 117.569H30.579ZM31.7445 116.781L31.4588 115.793C31.4176 115.654 31.3778 115.505 31.3393 115.343C31.3008 115.181 31.2629 115.033 31.2272 114.894H31.2133C31.1769 115.033 31.1414 115.184 31.1077 115.347C31.0731 115.511 31.0376 115.659 31.0019 115.793L30.7288 116.781H31.7445ZM33.982 118.763V114.107H35.1956L36.151 115.813C36.2873 116.062 36.4196 116.324 36.5493 116.601C36.6788 116.878 36.7963 117.146 36.901 117.41H36.9213C36.8854 117.101 36.8608 116.788 36.8499 116.47C36.8379 116.152 36.8329 115.816 36.8329 115.461V114.107H37.7877V118.763H36.6958L35.7133 116.967C35.578 116.719 35.4389 116.452 35.2978 116.165C35.1572 115.88 35.0295 115.599 34.9163 115.323L34.8952 115.33C34.9091 115.638 34.9196 115.959 34.9268 116.29C34.9329 116.622 34.9372 116.978 34.9372 117.361V118.763H33.982ZM38.6877 114.168C38.8784 114.137 39.0947 114.113 39.3359 114.097C39.5764 114.08 39.8295 114.073 40.0928 114.073C40.529 114.073 40.8964 114.113 41.1935 114.193C41.4921 114.273 41.7517 114.399 41.9742 114.57C42.2155 114.75 42.4053 114.983 42.544 115.271C42.6828 115.559 42.7523 115.91 42.7523 116.324C42.7523 116.771 42.6802 117.149 42.5372 117.458C42.3944 117.765 42.2114 118.017 41.9888 118.211C41.7428 118.418 41.442 118.57 41.0846 118.667C40.7277 118.763 40.3218 118.811 39.8676 118.811C39.5946 118.811 39.3622 118.805 39.172 118.791C38.9809 118.777 38.8194 118.761 38.6877 118.743V114.168ZM39.7313 117.969C39.7766 117.978 39.8323 117.984 39.8983 117.986C39.9642 117.989 40.0284 117.989 40.0928 117.989C40.329 117.989 40.5425 117.957 40.7338 117.892C40.9245 117.828 41.0879 117.73 41.2242 117.596C41.3611 117.463 41.4651 117.292 41.538 117.084C41.6109 116.878 41.6473 116.635 41.6473 116.359C41.6518 115.875 41.5232 115.508 41.2622 115.257C41.0009 115.006 40.6476 114.881 40.2019 114.881C40.0833 114.881 39.9871 114.886 39.9113 114.894C39.8369 114.904 39.7766 114.913 39.7313 114.922V117.969ZM44.8119 114.168C44.9794 114.141 45.1827 114.119 45.4221 114.1C45.6609 114.082 45.9186 114.073 46.1957 114.073C46.5371 114.073 46.829 114.1 47.0723 114.154C47.3157 114.211 47.5185 114.305 47.6826 114.438C47.9647 114.669 48.1057 114.994 48.1057 115.413C48.1057 115.56 48.0824 115.695 48.0346 115.82C47.9862 115.944 47.924 116.055 47.8465 116.152C47.7692 116.249 47.6826 116.332 47.5871 116.401C47.4922 116.47 47.3942 116.523 47.2946 116.56V116.58C47.4526 116.645 47.5808 116.752 47.6757 116.902C47.7714 117.052 47.848 117.234 47.9079 117.451C47.944 117.584 47.9793 117.718 48.0143 117.854C48.048 117.99 48.0824 118.118 48.116 118.238C48.1497 118.358 48.1804 118.464 48.2076 118.557C48.235 118.648 48.2605 118.718 48.2831 118.763H47.219C47.1461 118.626 47.0393 118.264 46.8989 117.679C46.8669 117.536 46.8299 117.416 46.7901 117.32C46.748 117.223 46.698 117.146 46.6392 117.092C46.5802 117.036 46.5108 116.996 46.4316 116.97C46.3521 116.945 46.2601 116.932 46.1552 116.932H45.8413V118.763H44.8119V114.168ZM45.8413 116.173H46.2509C46.5097 116.173 46.7121 116.113 46.8575 115.993C47.0033 115.874 47.0754 115.71 47.0754 115.502C47.0754 115.286 47.0086 115.125 46.8745 115.019C46.7404 114.913 46.5528 114.858 46.3119 114.853C46.185 114.853 46.0838 114.856 46.0085 114.863C45.9338 114.87 45.8781 114.879 45.8413 114.887V116.173ZM49.9261 117.569L49.5992 118.763H48.5219L49.9261 114.107H51.2908L52.7153 118.763H51.5977L51.2427 117.569H49.9261ZM51.0927 116.781L50.8065 115.793C50.7656 115.654 50.7255 115.505 50.6864 115.343C50.6489 115.181 50.6111 115.033 50.5741 114.894H50.5608C50.5238 115.033 50.4887 115.184 50.4548 115.347C50.4206 115.511 50.386 115.659 50.3488 115.793L50.077 116.781H51.0927ZM53.3297 114.168C53.5206 114.137 53.7367 114.113 53.9774 114.097C54.2186 114.08 54.4715 114.073 54.735 114.073C55.1703 114.073 55.5382 114.113 55.8359 114.193C56.1334 114.273 56.3942 114.399 56.6168 114.57C56.8575 114.75 57.0475 114.983 57.1855 115.271C57.325 115.559 57.394 115.91 57.394 116.324C57.394 116.771 57.322 117.149 57.1794 117.458C57.036 117.765 56.853 118.017 56.6307 118.211C56.3848 118.418 56.0838 118.57 55.7264 118.667C55.3703 118.763 54.9649 118.811 54.5098 118.811C54.2362 118.811 54.0051 118.805 53.814 118.791C53.6224 118.777 53.4614 118.761 53.3297 118.743V114.168ZM54.3733 117.969C54.4177 117.978 54.4745 117.984 54.5402 117.986C54.6062 117.989 54.6706 117.989 54.735 117.989C54.971 117.989 55.184 117.957 55.3756 117.892C55.5667 117.828 55.7306 117.73 55.8666 117.596C56.0024 117.463 56.1082 117.292 56.18 117.084C56.2533 116.878 56.2899 116.635 56.2899 116.359C56.2936 115.875 56.165 115.508 55.9038 115.257C55.6422 115.006 55.2898 114.881 54.8436 114.881C54.725 114.881 54.6286 114.886 54.5542 114.894C54.4791 114.904 54.4177 114.913 54.3733 114.922V117.969ZM59.1195 118.763H58.0759V114.107H59.1195V118.763ZM62.0452 114.031C62.4001 114.031 62.7118 114.093 62.983 114.218C63.2537 114.342 63.481 114.511 63.6651 114.725C63.849 114.94 63.9883 115.189 64.0849 115.475C64.1798 115.76 64.2275 116.064 64.2275 116.386C64.2275 116.769 64.1729 117.112 64.0636 117.416C63.9546 117.72 63.8013 117.977 63.6037 118.187C63.4061 118.396 63.1686 118.557 62.8911 118.67C62.6136 118.783 62.3063 118.839 61.9701 118.839C61.6292 118.839 61.325 118.778 61.0566 118.656C60.7885 118.534 60.5617 118.367 60.3778 118.152C60.1938 117.938 60.0528 117.687 59.9547 117.399C59.8574 117.111 59.8077 116.801 59.8077 116.47C59.8077 116.119 59.8613 115.796 59.9686 115.499C60.0761 115.202 60.2261 114.945 60.4185 114.729C60.6122 114.512 60.8468 114.342 61.1212 114.218C61.3963 114.093 61.705 114.031 62.0452 114.031ZM62.0175 114.867C61.8397 114.867 61.6843 114.907 61.5478 114.988C61.4107 115.068 61.2951 115.179 61.2 115.32C61.1043 115.46 61.0314 115.627 60.9817 115.82C60.9319 116.013 60.9064 116.223 60.9064 116.449C60.9064 116.679 60.9325 116.889 60.9846 117.078C61.0368 117.267 61.1101 117.43 61.2068 117.569C61.3019 117.707 61.4192 117.813 61.5578 117.89C61.6971 117.964 61.8521 118.003 62.0253 118.003C62.2021 118.003 62.3594 117.964 62.4957 117.882C62.6321 117.802 62.7471 117.691 62.8404 117.551C62.9325 117.41 63.0045 117.243 63.055 117.05C63.104 116.856 63.1297 116.647 63.1297 116.421C63.1297 116.214 63.1055 116.016 63.0583 115.827C63.0106 115.638 62.9386 115.472 62.8435 115.33C62.7471 115.187 62.6306 115.074 62.4911 114.991C62.3531 114.909 62.1953 114.867 62.0175 114.867ZM64.9094 114.107H65.953V117.879H67.7815V118.763H64.9094V114.107ZM70.42 114.031C70.7745 114.031 71.0873 114.093 71.3585 114.218C71.6282 114.342 71.8558 114.511 72.0404 114.725C72.2243 114.94 72.3636 115.189 72.4587 115.475C72.5551 115.76 72.6028 116.064 72.6028 116.386C72.6028 116.769 72.5477 117.112 72.4389 117.416C72.3301 117.72 72.1762 117.977 71.9792 118.187C71.7799 118.396 71.5439 118.557 71.2653 118.67C70.9891 118.783 70.682 118.839 70.3456 118.839C70.0036 118.839 69.6994 118.778 69.431 118.656C69.1622 118.534 68.9369 118.367 68.7524 118.152C68.5691 117.938 68.4272 117.687 68.3293 117.399C68.232 117.111 68.183 116.801 68.183 116.47C68.183 116.119 68.2368 115.796 68.3439 115.499C68.4503 115.202 68.5998 114.945 68.7929 114.729C68.9874 114.512 69.2203 114.342 69.4963 114.218C69.7708 114.093 70.0787 114.031 70.42 114.031ZM70.3928 114.867C70.2158 114.867 70.0587 114.907 69.9224 114.988C69.786 115.068 69.6695 115.179 69.5744 115.32C69.4793 115.46 69.406 115.627 69.3553 115.82C69.3063 116.013 69.2819 116.223 69.2819 116.449C69.2819 116.679 69.3069 116.889 69.3598 117.078C69.4118 117.267 69.4854 117.43 69.5805 117.569C69.6769 117.707 69.7936 117.813 69.9325 117.89C70.0709 117.964 70.2267 118.003 70.3991 118.003C70.5767 118.003 70.7332 117.964 70.8703 117.882C71.0066 117.802 71.1208 117.691 71.2142 117.551C71.3078 117.41 71.3796 117.243 71.4297 117.05C71.4793 116.856 71.5041 116.647 71.5041 116.421C71.5041 116.214 71.4808 116.016 71.4329 115.827C71.3844 115.638 71.3139 115.472 71.2172 115.33C71.1223 115.187 71.0055 115.074 70.8673 114.991C70.7284 114.909 70.5708 114.867 70.3928 114.867ZM77.1237 118.549C77.0426 118.577 76.9459 118.606 76.8341 118.636C76.7233 118.665 76.5996 118.694 76.4656 118.722C76.3315 118.75 76.1905 118.771 76.0396 118.788C75.8899 118.804 75.7399 118.811 75.5898 118.811C75.1667 118.811 74.8025 118.758 74.4985 118.652C74.1936 118.547 73.9348 118.39 73.7204 118.183C73.5069 117.98 73.3445 117.734 73.2331 117.444C73.1225 117.153 73.0688 116.836 73.0733 116.49C73.0733 116.104 73.1406 115.759 73.274 115.457C73.4089 115.156 73.5913 114.902 73.8225 114.694C74.0556 114.486 74.3316 114.329 74.6517 114.22C74.9721 114.113 75.3214 114.058 75.6986 114.058C75.9987 114.058 76.2579 114.083 76.4769 114.131C76.6948 114.18 76.8602 114.232 76.9736 114.286L76.7559 115.129C76.6286 115.074 76.4817 115.027 76.3163 114.988C76.1506 114.949 75.9395 114.929 75.6847 114.929C75.4672 114.929 75.2663 114.96 75.0809 115.023C74.897 115.084 74.7366 115.178 74.6001 115.302C74.465 115.426 74.3574 115.584 74.2804 115.772C74.2027 115.961 74.1644 116.182 74.1644 116.435C74.1644 116.675 74.1999 116.889 74.2702 117.078C74.3407 117.267 74.4393 117.427 74.5666 117.558C74.6937 117.689 74.8465 117.789 75.0237 117.859C75.2004 117.928 75.3967 117.962 75.6102 117.962C75.8594 117.962 76.0309 117.939 76.1215 117.892V116.919H75.4128V116.097H77.1237V118.549ZM78.9996 118.763V116.856L77.5469 114.107H78.7346L79.2042 115.226C79.2771 115.397 79.3398 115.55 79.3921 115.685C79.4441 115.821 79.4998 115.965 79.5588 116.118H79.5718C79.6219 115.97 79.6754 115.826 79.7327 115.685C79.7888 115.545 79.8515 115.392 79.9207 115.226L80.3843 114.107H81.5496L80.0354 116.822V118.763H78.9996Z" fill="#A79ECD"/>
</svg>
