<svg width="34" height="34" viewBox="0 0 34 34" fill="none" xmlns="http://www.w3.org/2000/svg">
<g clip-path="url(#clip0_942_27)">
<path d="M7.13696 23.2188C9.20899 23.4349 11.2871 22.8697 12.9642 21.6339C12.5846 21.539 12.2619 21.4725 11.9487 21.3729C11.3907 21.2022 10.8771 20.9111 10.4441 20.5199C10.0111 20.1288 9.66942 19.6472 9.44317 19.1094C9.28658 18.7677 9.3198 18.7393 9.69467 18.7487C10.1109 18.7975 10.5328 18.7587 10.9332 18.6349C10.2838 18.4658 9.68576 18.1399 9.19167 17.6858C8.42586 17.0033 7.9589 16.0473 7.89146 15.0237C7.85825 14.6014 7.89146 14.5492 8.29006 14.7437C8.67041 14.9274 9.08723 15.0231 9.50961 15.0237C9.21894 14.7393 8.94333 14.44 8.68392 14.1268C8.25145 13.5465 7.98352 12.8602 7.90835 12.1403C7.83319 11.4204 7.95359 10.6936 8.25685 10.0364C8.42294 9.65202 8.48462 9.63779 8.75985 9.95098C10.6898 12.1594 13.3868 13.552 16.3049 13.8469C16.7794 13.8943 16.8079 13.8469 16.7557 13.3723C16.6821 12.5574 16.8509 11.7389 17.2409 11.0196C17.631 10.3003 18.2249 9.71224 18.948 9.32934C19.6763 8.95238 20.5011 8.80328 21.3153 8.90146C22.1294 8.99963 22.8952 9.34052 23.513 9.8798C23.6088 9.97813 23.7306 10.0473 23.8641 10.0792C23.9977 10.1111 24.1375 10.1045 24.2675 10.0601C24.8918 9.89291 25.4963 9.65904 26.0707 9.36256C26.1608 9.31511 26.2368 9.21546 26.4076 9.27715C26.1221 10.1057 25.5969 10.8308 24.8986 11.3603C25.5757 11.2687 26.2378 11.0884 26.8679 10.8241C26.8678 10.9138 26.8487 11.0024 26.8119 11.0842C26.7751 11.166 26.7214 11.2391 26.6543 11.2986C26.2608 11.8352 25.7944 12.3143 25.2687 12.7222C25.156 12.7981 25.0657 12.9029 25.0073 13.0256C24.9488 13.1483 24.9244 13.2844 24.9365 13.4198C24.9779 16.0455 24.115 18.6056 22.4927 20.6706C21.5919 21.8899 20.446 22.9073 19.1286 23.6575C17.8113 24.4077 16.3516 24.8741 14.8433 25.0268C12.301 25.3539 9.7219 24.8318 7.50709 23.5415L7.26508 23.3849C7.21835 23.3328 7.17553 23.2772 7.13696 23.2188Z" fill="white"/>
<path d="M27.067 0.948975H6.93278C3.62802 0.948975 0.948975 3.62802 0.948975 6.93278V27.067C0.948975 30.3718 3.62802 33.0509 6.93278 33.0509H27.067C30.3718 33.0509 33.0509 30.3718 33.0509 27.067V6.93278C33.0509 3.62802 30.3718 0.948975 27.067 0.948975Z" stroke="white" stroke-width="2" stroke-linecap="round" stroke-linejoin="round"/>
</g>
<defs>
<clipPath id="clip0_942_27">
<rect width="34" height="34" fill="white"/>
</clipPath>
</defs>
</svg>
